<svg xmlns="http://www.w3.org/2000/svg" xmlns:xlink="http://www.w3.org/1999/xlink" viewBox="0 0 634.8 623.386">
  <defs>
    <linearGradient id="a" x1="-3158.292" y1="-144.6" x2="-3147.299" y2="-144.6" gradientTransform="translate(-2784.917 410.9) rotate(180)" gradientUnits="userSpaceOnUse">
      <stop offset="0.1"/>
      <stop offset="0.888" stop-opacity="0"/>
    </linearGradient>
    <clipPath id="b">
      <polygon points="205.5 161.5 204.1 162.9 211.6 170.5 190.5 170.5 190.5 172.5 211.6 172.5 204.1 180.1 205.5 181.5 215.5 171.5 205.5 161.5" fill="none"/>
    </clipPath>
    <clipPath id="c">
      <rect x="187.5" y="155.5" width="32" height="32" fill="none"/>
    </clipPath>
    <clipPath id="d">
      <polygon points="319.5 161.5 318.1 162.9 325.6 170.5 304.5 170.5 304.5 172.5 325.6 172.5 318.1 180.1 319.5 181.5 329.5 171.5 319.5 161.5" fill="none"/>
    </clipPath>
    <clipPath id="e">
      <rect x="301.5" y="155.5" width="32" height="32" fill="none"/>
    </clipPath>
    <clipPath id="f">
      <polygon points="433.5 161.5 432.1 162.9 439.6 170.5 418.5 170.5 418.5 172.5 439.6 172.5 432.1 180.1 433.5 181.5 443.5 171.5 433.5 161.5" fill="none"/>
    </clipPath>
    <clipPath id="g">
      <rect x="415.5" y="155.5" width="32" height="32" fill="none"/>
    </clipPath>
    <clipPath id="h">
      <polygon points="91.5 161.5 90.1 162.9 97.6 170.5 76.5 170.5 76.5 172.5 97.6 172.5 90.1 180.1 91.5 181.5 101.5 171.5 91.5 161.5" fill="none"/>
    </clipPath>
    <clipPath id="i">
      <rect x="73.5" y="155.5" width="32" height="32" fill="none"/>
    </clipPath>
    <clipPath id="j">
      <rect x="12.5" y="151.5" width="40" height="40" fill="none"/>
    </clipPath>
    <clipPath id="l">
      <rect x="354.5" y="151.5" width="40" height="40" fill="none"/>
    </clipPath>
    <clipPath id="n">
      <rect x="126.5" y="151.5" width="40" height="40" fill="none"/>
    </clipPath>
    <mask id="p" x="358.385" y="534.5" width="31.979" height="32" maskUnits="userSpaceOnUse">
      <g>
        <g>
          <circle cx="365.38" cy="559.5" r="1" fill="#fff"/>
          <path d="M386.367,554.5h-2v2h2v6H362.382v-6h9.994v-2h-9.994a2,2,0,0,0-2,2v6a2,2,0,0,0,2,2h23.985a2,2,0,0,0,2-2v-6A2,2,0,0,0,386.367,554.5Z" fill="#fff"/>
        </g>
        <rect x="362.382" y="553.5" width="10.993" height="4" fill="url(#a)"/>
      </g>
    </mask>
    <linearGradient id="q" x1="358.38" y1="1384.985" x2="390.369" y2="1352.995" gradientTransform="translate(0 -818.49)" gradientUnits="userSpaceOnUse">
      <stop offset="0.1" stop-color="#a56eff"/>
      <stop offset="0.9" stop-color="#0f62fe"/>
    </linearGradient>
  </defs>
  <g>
    <g>
      <line x1="554.2" y1="162.5" x2="564.1" y2="172.1" fill="none" stroke="#4589ff" stroke-miterlimit="10" stroke-width="2"/>
      <line x1="564" y1="170.9" x2="554.4" y2="180.8" fill="none" stroke="#4589ff" stroke-miterlimit="10" stroke-width="2"/>
    </g>
    <g>
      <line x1="433.2" y1="162.5" x2="443.1" y2="172.1" fill="none" stroke="#4589ff" stroke-miterlimit="10" stroke-width="2"/>
      <line x1="443" y1="170.9" x2="433.4" y2="180.8" fill="none" stroke="#4589ff" stroke-miterlimit="10" stroke-width="2"/>
    </g>
    <g>
      <line x1="319.2" y1="162.5" x2="329.1" y2="172.1" fill="none" stroke="#4589ff" stroke-miterlimit="10" stroke-width="2"/>
      <line x1="329" y1="170.9" x2="319.4" y2="180.8" fill="none" stroke="#4589ff" stroke-miterlimit="10" stroke-width="2"/>
    </g>
    <g>
      <line x1="204.2" y1="162.5" x2="214.1" y2="172.1" fill="none" stroke="#4589ff" stroke-miterlimit="10" stroke-width="2"/>
      <line x1="214" y1="170.9" x2="204.4" y2="180.8" fill="none" stroke="#4589ff" stroke-miterlimit="10" stroke-width="2"/>
    </g>
    <rect x="275.5" y="244.5" width="1" height="61" fill="#4589ff"/>
    <g>
      <polygon points="205.5 161.5 204.1 162.9 211.6 170.5 190.5 170.5 190.5 172.5 211.6 172.5 204.1 180.1 205.5 181.5 215.5 171.5 205.5 161.5" fill="#0f62fe" fill-rule="evenodd"/>
      <g clip-path="url(#b)">
        <g>
          <rect x="187.5" y="155.5" width="32" height="32" fill="#0f62fe"/>
          <g clip-path="url(#c)">
            <rect x="185.5" y="156.5" width="35" height="30" fill="#0f62fe"/>
          </g>
        </g>
      </g>
    </g>
    <g>
      <polygon points="319.5 161.5 318.1 162.9 325.6 170.5 304.5 170.5 304.5 172.5 325.6 172.5 318.1 180.1 319.5 181.5 329.5 171.5 319.5 161.5" fill="#0f62fe" fill-rule="evenodd"/>
      <g clip-path="url(#d)">
        <g>
          <rect x="301.5" y="155.5" width="32" height="32" fill="#0f62fe"/>
          <g clip-path="url(#e)">
            <rect x="299.5" y="156.5" width="35" height="30" fill="#0f62fe"/>
          </g>
        </g>
      </g>
    </g>
    <g>
      <polygon points="433.5 161.5 432.1 162.9 439.6 170.5 418.5 170.5 418.5 172.5 439.6 172.5 432.1 180.1 433.5 181.5 443.5 171.5 433.5 161.5" fill="#0f62fe" fill-rule="evenodd"/>
      <g clip-path="url(#f)">
        <g>
          <rect x="415.5" y="155.5" width="32" height="32" fill="#0f62fe"/>
          <g clip-path="url(#g)">
            <rect x="413.5" y="156.5" width="35" height="30" fill="#0f62fe"/>
          </g>
        </g>
      </g>
    </g>
    <g>
      <rect x="145.5" y="98.5" width="1" height="24" fill="#4589ff"/>
      <polyline points="152 116.5 146 122.5 140 116.5" fill="none" stroke="#4589ff" stroke-miterlimit="10"/>
      <polyline points="152 104.5 146 98.5 140 104.5" fill="none" stroke="#4589ff" stroke-miterlimit="10"/>
    </g>
    <g>
      <rect x="259.5" y="98.5" width="1" height="24" fill="#4589ff"/>
      <polyline points="266 104.5 260 98.5 254 104.5" fill="none" stroke="#4589ff" stroke-miterlimit="10"/>
    </g>
    <polyline points="515 249.5 509 243.5 503 249.5" fill="none" stroke="#4589ff" stroke-miterlimit="10"/>
    <rect x="240.5" y="244" width="1" height="249" fill="#4589ff"/>
    <rect x="508.5" y="244" width="1" height="249" fill="#4589ff"/>
    <rect x="489.5" y="32.5" width="1" height="90" fill="#4589ff"/>
    <rect x="309.5" y="32.5" width="1" height="114" fill="#4589ff"/>
    <rect x="419.5" y="32.5" width="70" height="1" fill="#4589ff"/>
    <polyline points="425.5 39 419.5 33 425.5 27" fill="none" stroke="#4589ff" stroke-miterlimit="10"/>
    <rect x="309.5" y="32.5" width="20" height="1" fill="#4589ff"/>
    <rect x="289.5" y="145.5" width="20" height="1" fill="#4589ff"/>
    <polyline points="323.5 39 329.5 33 323.5 27" fill="none" stroke="#4589ff" stroke-miterlimit="10"/>
    <polyline points="282 250.5 276 244.5 270 250.5" fill="none" stroke="#4589ff" stroke-miterlimit="10"/>
    <rect x="276.5" y="304.5" width="54" height="1" fill="#4589ff"/>
    <polyline points="467 250.5 473 244.5 479 250.5" fill="none" stroke="#4589ff" stroke-miterlimit="10"/>
    <rect x="472.5" y="244.5" width="1" height="61" fill="#4589ff"/>
    <rect x="419.5" y="304.5" width="54" height="1" fill="#4589ff"/>
    <rect x="241.5" y="492.5" width="126.3" height="1" fill="#4589ff"/>
    <rect x="369.277" y="487.348" width="11.3" height="11.3" transform="translate(-238.789 409.509) rotate(-45)" fill="none" stroke="#4589ff" stroke-miterlimit="10" stroke-width="1"/>
    <rect x="382.8" y="492.5" width="126.7" height="1" fill="#4589ff"/>
    <rect x="374.5" y="471.5" width="1" height="14" fill="#4589ff"/>
    <rect x="374.5" y="500.5" width="1" height="14" fill="#4589ff"/>
    <g>
      <rect x="191" y="32" width="24" height="1" fill="#4589ff"/>
      <polyline points="209 38.5 215 32.5 209 26.5" fill="none" stroke="#4589ff" stroke-miterlimit="10"/>
    </g>
    <circle cx="375" cy="305.5" r="32" fill="#fff" stroke="#000" stroke-miterlimit="10"/>
    <g>
      <polygon points="91.5 161.5 90.1 162.9 97.6 170.5 76.5 170.5 76.5 172.5 97.6 172.5 90.1 180.1 91.5 181.5 101.5 171.5 91.5 161.5" fill="#0f62fe" fill-rule="evenodd"/>
      <g clip-path="url(#h)">
        <g>
          <rect x="73.5" y="155.5" width="32" height="32" fill="#0f62fe"/>
          <g clip-path="url(#i)">
            <rect x="71.5" y="156.5" width="35" height="30" fill="#0f62fe"/>
          </g>
        </g>
      </g>
    </g>
    <rect x="45.5" y="169.6" width="517" height="4" fill="#0f62fe"/>
    <g>
      <line x1="91.2" y1="162.5" x2="101.1" y2="172.1" fill="none"/>
      <line x1="101" y1="170.9" x2="91.4" y2="180.8" fill="none"/>
    </g>
  </g>
  <g>
    <circle cx="260.3" cy="171.5" r="32" fill="#fff" stroke="#000" stroke-miterlimit="10"/>
    <circle cx="260.229" cy="172.327" r="32" fill="#fff" stroke="#0f62fe" stroke-miterlimit="10" stroke-width="2"/>
    <g>
      <g>
        <g>
          <path d="M276.6,174.7a17.114,17.114,0,0,1-16.7,13.6,15.613,15.613,0,0,1-13-6.5l9-9.3,1.1,1.1-1.1-1.1h0l1.3,1.6,2.1-7.4-7.2,2.2,1.3,1.4-2.1,2.5-6.1,6.3a16.368,16.368,0,0,1-2.1-6.8l-2.6-3.8a12.413,12.413,0,0,0-.3,2.7c0,11.2,9,20.4,19.9,20.4A19.882,19.882,0,0,0,278.9,178Z" fill="#fd783d"/>
          <polyline points="245.1 179 253.6 170.3 252.3 169 259.4 166.8 247 179.3" fill="#fda578"/>
        </g>
        <g>
          <path d="M259.9,191.3a19.882,19.882,0,0,0,18.8-13.6l-1.3-1.6c-2.1,7.9-9.3,13.9-17.5,13.9a18.549,18.549,0,0,1-18.3-18.8v-.8l-1.1-1.9a12.413,12.413,0,0,0-.3,2.7,20.083,20.083,0,0,0,19.7,20.1Z" fill="#fda578"/>
          <line x1="245.1" y1="179.3" x2="247" y2="179.8" fill="none"/>
        </g>
      </g>
      <g>
        <g>
          <path d="M243.8,168.1a17.114,17.114,0,0,1,16.7-13.6,15.613,15.613,0,0,1,13,6.5l-9,9.3-.8-1.1,1.1,1.1h0l-1.6-1.6-2.1,7.4,7.2-2.2-1.3-1.4,2.4-2.5,6.1-6.3a17.714,17.714,0,0,1,1.9,6.8l2.6,3.8a10.075,10.075,0,0,0,.3-2.5c0-11.2-9-20.4-19.9-20.4A19.769,19.769,0,0,0,241.9,165Z" fill="#1cb3a0"/>
          <polyline points="273.4 161.1 264.5 170.3 263.1 168.7 261 176 273.2 163.5" fill="#4ad5c3"/>
        </g>
        <g>
          <path d="M260.5,151.5a19.882,19.882,0,0,0-18.8,13.6l1.3,1.6c2.1-7.9,9.3-13.9,17.5-13.9a18.549,18.549,0,0,1,18.3,18.8v.8l1.3,1.9a10.075,10.075,0,0,0,.3-2.5C280.1,160.5,271.3,151.5,260.5,151.5Z" fill="#4ad5c3"/>
          <line x1="275.3" y1="163.5" x2="273.4" y2="163" fill="none"/>
        </g>
      </g>
    </g>
    <circle cx="146.5" cy="32.5" r="32" fill="#fff" stroke="#000" stroke-miterlimit="10"/>
    <g>
      <g>
        <g>
          <path d="M162.8,35.6a17.114,17.114,0,0,1-16.7,13.6,15.613,15.613,0,0,1-13-6.5l9-9.3,1.1,1.1-1.1-1.1h0l1.3,1.6,2.1-7.4-7.2,2.2,1.3,1.4-2.1,2.5L131.4,40a16.368,16.368,0,0,1-2.1-6.8l-2.6-3.8a12.413,12.413,0,0,0-.3,2.7c0,11.2,9,20.4,19.9,20.4a19.882,19.882,0,0,0,18.8-13.6Z" fill="#fd783d"/>
          <polyline points="131.3 40 139.8 31.3 138.4 29.9 145.6 27.7 133.1 40.3" fill="#fda578"/>
        </g>
        <g>
          <path d="M146.1,52.3a19.882,19.882,0,0,0,18.8-13.6l-1.3-1.6C161.5,45,154.3,51,146.1,51a18.549,18.549,0,0,1-18.3-18.8v-.8l-1.1-1.9a12.413,12.413,0,0,0-.3,2.7,20.017,20.017,0,0,0,19.7,20.1Z" fill="#fda578"/>
          <line x1="131.3" y1="40.3" x2="133.1" y2="40.8" fill="none"/>
        </g>
      </g>
      <g>
        <g>
          <path d="M129.9,29.1a17.114,17.114,0,0,1,16.7-13.6,15.613,15.613,0,0,1,13,6.5l-9,9.3-.8-1.1,1.1,1.1h0l-1.6-1.6-2.1,7.4,7.2-2.2-1.3-1.4,2.4-2.5,6.1-6.3a17.714,17.714,0,0,1,1.9,6.8l2.6,3.8a10.075,10.075,0,0,0,.3-2.5c0-11.2-9-20.4-19.9-20.4A19.9,19.9,0,0,0,127.9,26Z" fill="#1cb3a0"/>
          <polyline points="159.6 22 150.6 31.3 149.3 29.7 147.2 37 159.4 24.5" fill="#4ad5c3"/>
        </g>
        <g>
          <path d="M146.6,12.5a19.882,19.882,0,0,0-18.8,13.6l1.3,1.6c2.1-7.9,9.3-13.9,17.5-13.9a18.549,18.549,0,0,1,18.3,18.8v.8l1.3,1.9a10.075,10.075,0,0,0,.3-2.5C166.3,21.5,157.5,12.5,146.6,12.5Z" fill="#4ad5c3"/>
          <line x1="161.5" y1="24.5" x2="159.6" y2="23.9" fill="none"/>
        </g>
      </g>
    </g>
    <circle cx="489.233" cy="172.324" r="32" fill="#fff" stroke="#0f62fe" stroke-miterlimit="10" stroke-width="2"/>
    <g>
      <g>
        <g>
          <path d="M505,174.7a17.114,17.114,0,0,1-16.7,13.6,15.613,15.613,0,0,1-13-6.5l9-9.3,1.1,1.1-1.1-1.1h0l1.3,1.6,2.1-7.4-7.2,2.2,1.3,1.4-2.1,2.5-6.1,6.3a16.368,16.368,0,0,1-2.1-6.8l-2.6-3.8a12.413,12.413,0,0,0-.3,2.7c0,11.2,9,20.4,19.9,20.4A19.882,19.882,0,0,0,507.3,178Z" fill="#fd783d"/>
          <polyline points="473.4 179 481.9 170.3 480.6 168.9 487.7 166.8 475.3 179.3" fill="#fda578"/>
        </g>
        <g>
          <path d="M488.3,191.3a19.882,19.882,0,0,0,18.8-13.6l-1.3-1.6c-2.1,7.9-9.3,13.9-17.5,13.9A18.549,18.549,0,0,1,470,171.2v-.8l-1.1-1.9a12.413,12.413,0,0,0-.3,2.7,19.951,19.951,0,0,0,19.7,20.1Z" fill="#fda578"/>
          <line x1="473.4" y1="179.3" x2="475.3" y2="179.8" fill="none"/>
        </g>
      </g>
      <g>
        <g>
          <path d="M472.1,168.1a17.114,17.114,0,0,1,16.7-13.6,15.613,15.613,0,0,1,13,6.5l-9,9.3-.8-1.1,1.1,1.1h0l-1.6-1.6-2.1,7.4,7.2-2.2-1.3-1.4,2.4-2.5,6.1-6.3a17.714,17.714,0,0,1,1.9,6.8l2.6,3.8a10.075,10.075,0,0,0,.3-2.5c0-11.2-9-20.4-19.9-20.4A19.9,19.9,0,0,0,470.1,165Z" fill="#1cb3a0"/>
          <polyline points="501.8 161 492.8 170.3 491.4 168.7 489.3 176 501.5 163.5" fill="#4ad5c3"/>
        </g>
        <g>
          <path d="M488.8,151.5A19.882,19.882,0,0,0,470,165.1l1.3,1.6c2.1-7.9,9.3-13.9,17.5-13.9a18.549,18.549,0,0,1,18.3,18.8v.8l1.3,1.9a10.075,10.075,0,0,0,.3-2.5C508.4,160.5,499.7,151.5,488.8,151.5Z" fill="#4ad5c3"/>
          <line x1="503.6" y1="163.5" x2="501.8" y2="162.9" fill="none"/>
        </g>
      </g>
    </g>
    <circle cx="146.5" cy="171.5" r="32" fill="#fff" stroke="#000" stroke-miterlimit="10"/>
    <circle cx="374.5" cy="171.5" r="32" fill="#fff" stroke="#000" stroke-miterlimit="10"/>
    <circle cx="32.5" cy="171.5" r="32" fill="#fff" stroke="#000" stroke-miterlimit="10"/>
    <circle cx="602.3" cy="171.5" r="32" fill="#fff" stroke="#000" stroke-miterlimit="10"/>
    <circle cx="374.5" cy="404.5" r="32" fill="#fff" stroke="#000" stroke-miterlimit="10"/>
    <path d="M625.2,167.9l-.1-.1a2.178,2.178,0,0,0-.9-.7l-6.1-2.7a2.263,2.263,0,0,0-1.8-.1l-4.4,1.6v-5.5a2.92,2.92,0,0,0-.2-.9v-.1a.1.1,0,0,0-.1-.1,2.168,2.168,0,0,0-1.1-1l-6.1-2.7a2.787,2.787,0,0,0-1.8-.1l-6.6,2.3a2.73,2.73,0,0,0-1.2.9c0,.1-.1.1-.1.2v.1a2.92,2.92,0,0,0-.2.9v5.5l-.3.1-5-2.2a2.263,2.263,0,0,0-1.8-.1l-6.6,2.3a2.511,2.511,0,0,0-1.6,2.1V174a2.188,2.188,0,0,0,1.3,2l6.4,3.2a2.551,2.551,0,0,0,2.1.1l4.8-1.9v4.4a2.188,2.188,0,0,0,1.3,2l6.4,3.2a3.81,3.81,0,0,0,1,.3h.2a2.92,2.92,0,0,0,.9-.2l6.3-2.5a2.166,2.166,0,0,0,1.4-2.1v-4.6l4.7,2.3a3.81,3.81,0,0,0,1,.3h.2a2.92,2.92,0,0,0,.9-.2l6.3-2.5a2.166,2.166,0,0,0,1.4-2.1V169C625.6,168.8,625.5,168.3,625.2,167.9Zm-18.1-2,2.2,1a3.24,3.24,0,0,0-.9.8.349.349,0,0,0-.1.2v.1a1.884,1.884,0,0,0-.2.8l-4.3,1.7V163c.1,0,.2,0,.2-.1l6.4-2.3v5.2l-2.7-1.2a.63.63,0,0,0-.9.3.777.777,0,0,0,.3,1Zm1,4.3v3l-3.6-1.6,3.6-1.4ZM603,156.9a1.1,1.1,0,0,1,.8,0l5.8,2.5-6,2.1a1.1,1.1,0,0,1-.8,0l-6-2.5Zm-7.2,9.6,3-1.2c.4-.1.5-.5.4-.9h0a.74.74,0,0,0-.9-.4l-2.5,1v-4.7l6.4,2.6c.1,0,.2.1.3.1v7.3l-6.1-3h0v-.1a.1.1,0,0,0-.1-.1,2.651,2.651,0,0,1-.5-.6Zm5.5,4.8-4.8,1.7v-4Zm-14.2,6.8-6.1-3a.792.792,0,0,1-.5-.8V168l6.4,2.7c.1,0,.2.1.3.1Zm.3-8.7-5.9-2.5,6.1-2.2a1.1,1.1,0,0,1,.8,0l5.7,2.5-6,2.2a.82.82,0,0,1-.7,0Zm5.1,2.9a.714.714,0,0,0-1,.3.593.593,0,0,0,.3.9h0l2.1,1.1a1.689,1.689,0,0,0-.3,1v.5l-5.1,2v-7.4c.1,0,.2,0,.2-.1l6.4-2.3v5.1c-.1,0-.1.1-.2.1Zm9.2,13.5-6.1-3a.792.792,0,0,1-.5-.8v-6.3l6.4,2.7c.1,0,.2.1.3.1l-.1,7.3Zm.3-8.6-5.9-2.5,6.2-2.2a1.1,1.1,0,0,1,.8,0l5.5,2.4h0l.3.1-6,2.2a1.387,1.387,0,0,1-.9,0Zm7.7,5.6a.76.76,0,0,1-.6.8L603,186v-7.4c.1,0,.2,0,.2-.1l6.4-2.3Zm6.5-3.7-5-2.4V176a2.92,2.92,0,0,0-.2-.9V175h0l1.9-.8a.7.7,0,0,0,.4-.9h0a.74.74,0,0,0-.9-.4l-2.4,1h0l-.2-.1V169l6.4,2.6c.1,0,.2.1.3.1Zm.3-8.7-6-2.5,6.3-2.2a1.1,1.1,0,0,1,.8,0l5.6,2.4-5.8,2.2a1.009,1.009,0,0,1-.9.1Zm7.7,5.6a.76.76,0,0,1-.6.8l-6.1,2.4v-7.4c.1,0,.2,0,.2-.1l6.4-2.5V176Z" fill="#69a1d6"/>
    <g clip-path="url(#j)">
      <g clip-path="url(#j)">
        <g>
          <path d="M24.4,173.4c-.1-.3-.1-.7-.2-1v-.2h0a7.634,7.634,0,0,1,.2-2.6h0V169h0a11.507,11.507,0,0,1,1.2-2.5h0c0-.1.1-.1.2-.2l.1-.1a.1.1,0,0,1,.1-.1,2.336,2.336,0,0,1,.7-.7,11.363,11.363,0,0,1,.2-10.6,18.252,18.252,0,0,0-3.2,1.4h0c-.1.1-.2.1-.3.2h-.2a.1.1,0,0,0-.1.1c-.1,0-.1.1-.2.1s-.1.1-.2.1-.1.1-.2.1-.1.1-.2.1-.1.1-.2.1-.1.1-.2.1-.1.1-.2.1a.1.1,0,0,0-.1.1.349.349,0,0,1-.2.1.1.1,0,0,0-.1.1c-.1.1-.2.2-.3.2l-.1.1-.2.1-.1.1a.349.349,0,0,1-.2.1.1.1,0,0,0-.1.1l-.1.1-.1.1-.1.1-.1.1-.1.1-.1.1-.1.1a.349.349,0,0,0-.1.2c0,.1-.1.1-.2.2s-.2.2-.2.3l-.1.1c0,.1-.1.1-.1.2a.1.1,0,0,1-.1.1.349.349,0,0,0-.1.2.1.1,0,0,1-.1.1.349.349,0,0,0-.1.2l-.1.1a.1.1,0,0,1-.1.1l-.1.2-.1.2c0,.1-.1.1-.1.2l-.1.1v.1c0,.1-.1.1-.1.2l-.1.1a.52.52,0,0,0-.2.4c0,.2-.1.2-.2.4a.1.1,0,0,1-.1.1l-.1.3a.1.1,0,0,1-.1.1.349.349,0,0,1-.1.2c0,.1,0,.1-.1.2a.349.349,0,0,1-.1.2c0,.1,0,.1-.1.2a.349.349,0,0,1-.1.2.1.1,0,0,1-.1.1c0,.1-.1.2-.1.3v.1a.6.6,0,0,0-.1.4h0c0,.1-.1.2-.1.4v.1c0,.1-.1.2-.1.3v.2c0,.1,0,.1-.1.2h0v.2c0,.1,0,.2-.1.2h0v.1a1.268,1.268,0,0,0-.1.6h0a9.616,9.616,0,0,0,8.7,6.1" fill="#243238"/>
          <path d="M30.1,179.4l-.9-.3c-.1,0-.1,0-.2-.1h0a10.961,10.961,0,0,1-2.1-1.4h0l-.1-.1-.1-.1-.1-.1-.1-.1h0a11.355,11.355,0,0,1-1.5-2.3h0l-.1-.2v-.2c-.1-.3-.2-.6-.3-1a11.472,11.472,0,0,1-9.1-5.4,19.727,19.727,0,0,0-.4,3.5v2.6a.6.6,0,0,0,.1.4v1.6c0,.1,0,.1.1.2,0,.1,0,.1.1.2,0,.1,0,.1.1.2s0,.1.1.2,0,.1.1.2,0,.1.1.2c0,.1.1.2.1.3s0,.1.1.2.1.1.1.2,0,.1.1.2c0,.1.1.1.1.2l.1.2c0,.1.1.1.1.2s0,.1.1.2v.1c0,.1.1.1.1.2s.1.1.1.2a.349.349,0,0,0,.1.2.1.1,0,0,0,.1.1v.1a.349.349,0,0,0,.1.2.1.1,0,0,0,.1.1c.1.1.1.2.2.4l.2.4a.1.1,0,0,0,.1.1c.1.1.1.2.2.2l.1.1c0,.1.1.1.1.2l.1.1c0,.1.1.1.1.2l.1.1.2.2.1.1c.1.1.1.2.2.2l.1.1.3.3h0c.1.1.2.2.2.3l.1.1.2.2.1.1c0,.1.1.1.2.2h0l.1.1.1.1.2.2h0a.1.1,0,0,1,.1.1,1.756,1.756,0,0,0,.5.4h0a11.878,11.878,0,0,0,9-5.4" fill="#3b4b54"/>
          <path d="M38.2,177.5a5.547,5.547,0,0,1-.8.6.349.349,0,0,1-.2.1h0a6.963,6.963,0,0,1-2.3,1.1h-.6a8.627,8.627,0,0,1-2.8.2H31c-.3-.1-.7-.1-1-.2a11.136,11.136,0,0,1-9.3,5.1,18.6,18.6,0,0,0,2.8,2.1h0c.1.1.2.1.3.2h.3c.1,0,.1.1.2.1s.1.1.2.1.1.1.2.1.1.1.2.1.1.1.2.1.1.1.2.1.1.1.2.1.1,0,.2.1c.1,0,.1.1.2.1s.1,0,.2.1c.1,0,.2.1.3.1s.1,0,.2.1c.1,0,.1.1.2.1s.1,0,.2.1.1,0,.2.1.1,0,.2.1.1,0,.2.1c.1,0,.1,0,.2.1.1,0,.1,0,.2.1s.1,0,.2.1.1,0,.2,0h.8l.3.1h5.9a.6.6,0,0,0,.4-.1h0a.756.756,0,0,0,.4-.1h.1a.367.367,0,0,0,.3-.1h.2c.1,0,.1,0,.2-.1h.2c.1,0,.2,0,.2-.1h.1c.2-.1.4-.1.6-.2h0a11.647,11.647,0,0,0,.1-10.6" fill="#0883a5"/>
          <path d="M40.5,169.6c.1.3.1.7.2,1v.2h0a7.634,7.634,0,0,1-.2,2.6h0v.6h0a11.507,11.507,0,0,1-1.2,2.5h0c0,.1-.1.1-.2.2l-.1.1a.1.1,0,0,1-.1.1,2.336,2.336,0,0,1-.7.7,11.363,11.363,0,0,1-.2,10.6,18.252,18.252,0,0,0,3.2-1.4h0c.1-.1.2-.1.3-.2h.2a.1.1,0,0,0,.1-.1c.1,0,.1-.1.2-.1s.1-.1.2-.1.1-.1.2-.1l.2-.1c.1,0,.1-.1.2-.1s.1-.1.2-.1l.2-.1.1-.1c.1,0,.1-.1.2-.1a.1.1,0,0,0,.1-.1c.1-.1.2-.2.3-.2l.1-.1.2-.1.1-.1a.349.349,0,0,1,.2-.1.1.1,0,0,0,.1-.1l.1-.1.1-.1.1-.1.1-.1.1-.1.1-.1.1-.1a.349.349,0,0,0,.1-.2c0-.1.1-.1.2-.2s.2-.2.2-.3l.1-.1a.349.349,0,0,0,.1-.2.1.1,0,0,1,.1-.1.349.349,0,0,0,.1-.2.1.1,0,0,1,.1-.1c0-.1.1-.1.1-.2a9951643238385.938,9951643238385.938,0,0,0,.2-.2l.1-.2.1-.2c0-.1.1-.1.1-.2l.1-.1v-.1c0-.1.1-.1.1-.2l.1-.1a.758.758,0,0,0,.2-.4.758.758,0,0,1,.2-.4.1.1,0,0,1,.1-.1l.1-.2a.1.1,0,0,1,.1-.1.349.349,0,0,1,.1-.2c0-.1,0-.1.1-.2a.349.349,0,0,1,.1-.2c0-.1,0-.1.1-.2a.349.349,0,0,1,.1-.2.1.1,0,0,1,.1-.1c0-.1.1-.2.1-.3v-.1a.6.6,0,0,0,.1-.4h0c0-.1.1-.2.1-.4v-.1c0-.1.1-.2.1-.3v-.2c0-.1,0-.1.1-.2h0v-.2c0-.1,0-.2.1-.2h0v-.1a1.268,1.268,0,0,0,.1-.6h0a9.415,9.415,0,0,0-8.7-6.2" fill="#00aed1"/>
          <path d="M34.9,163.5l.9.3c.1,0,.1,0,.2.1h0a10.961,10.961,0,0,1,2.1,1.4h0l.1.1.1.1.1.1.1.1h0A11.355,11.355,0,0,1,40,168h0l.1.2v.2c.1.3.2.6.3,1a11.472,11.472,0,0,1,9.1,5.4,19.727,19.727,0,0,0,.4-3.5v-2.6a.756.756,0,0,0-.1-.4v-1.6c0-.1,0-.1-.1-.2,0-.1,0-.1-.1-.2,0-.1,0-.1-.1-.2s0-.1-.1-.2,0-.1-.1-.2,0-.1-.1-.2c0-.1-.1-.2-.1-.3s0-.1-.1-.2-.1-.1-.1-.2,0-.1-.1-.2c0-.1-.1-.1-.1-.2l-.1-.2c0-.1-.1-.1-.1-.2s0-.1-.1-.2v-.1c0-.1-.1-.1-.1-.2s-.1-.1-.1-.2a.349.349,0,0,0-.1-.2.1.1,0,0,0-.1-.1v-.1a.349.349,0,0,0-.1-.2.1.1,0,0,0-.1-.1c-.1-.1-.1-.2-.2-.4l-.2-.4a.1.1,0,0,0-.1-.1c-.1-.1-.1-.2-.2-.2l-.1-.1c0-.1-.1-.1-.1-.2l-.1-.1c0-.1-.1-.1-.1-.2l-.1-.1-.2-.2-.1-.1c-.1-.1-.1-.2-.2-.2l-.1-.1-.3-.3h0c-.1-.1-.2-.2-.2-.3l-.1-.1-.2-.2-.1-.1c0-.1-.1-.1-.2-.2h0l-.1-.1-.1-.1-.2-.2h0a.1.1,0,0,1-.1-.1,1.756,1.756,0,0,0-.5-.4h0a12.167,12.167,0,0,0-9,5.4" fill="#027c68"/>
          <path d="M26.8,165.5a5.547,5.547,0,0,1,.8-.6.349.349,0,0,1,.2-.1h0a6.963,6.963,0,0,1,2.3-1.1h.6a8.627,8.627,0,0,1,2.8-.2H34c.3.1.7.1,1,.2a11.136,11.136,0,0,1,9.3-5.1,18.6,18.6,0,0,0-2.8-2.1h0c-.1-.1-.2-.1-.3-.2h-.3c-.1,0-.1-.1-.2-.1s-.1-.1-.2-.1-.1-.1-.2-.1-.1-.1-.2-.1-.1-.1-.2-.1-.1-.1-.2-.1-.1-.1-.2-.1-.1,0-.2-.1c-.1,0-.1-.1-.2-.1l-.2-.1c-.1,0-.2-.1-.3-.1s-.1,0-.2-.1c-.1,0-.1-.1-.2-.1s-.1,0-.2-.1-.1,0-.2-.1-.1,0-.2-.1-.1,0-.2-.1c-.1,0-.1,0-.2-.1-.1,0-.1,0-.2-.1s-.1,0-.2-.1h-1l-.3-.1h-6l-.4.1h0l-.4.1h-.1a.367.367,0,0,0-.3.1h-.2c-.1,0-.1,0-.2.1h-.2c-.1,0-.2,0-.2.1h-.1c-.2.1-.4.1-.6.2h0a11.653,11.653,0,0,0,0,10.6" fill="#00b199"/>
        </g>
      </g>
    </g>
    <g clip-path="url(#l)">
      <g clip-path="url(#l)">
        <g>
          <path d="M366.4,173.4c-.1-.3-.1-.7-.2-1v-.2h0a7.634,7.634,0,0,1,.2-2.6h0V169h0a11.507,11.507,0,0,1,1.2-2.5h0c0-.1.1-.1.2-.2l.1-.1a.1.1,0,0,1,.1-.1,2.336,2.336,0,0,1,.7-.7,11.363,11.363,0,0,1,.2-10.6,18.252,18.252,0,0,0-3.2,1.4h0c-.1.1-.2.1-.3.2h-.2a.1.1,0,0,0-.1.1c-.1,0-.1.1-.2.1s-.1.1-.2.1-.1.1-.2.1-.1.1-.2.1-.1.1-.2.1-.1.1-.2.1-.1.1-.2.1a.1.1,0,0,0-.1.1.349.349,0,0,1-.2.1.1.1,0,0,0-.1.1c-.1.1-.2.2-.3.2l-.1.1-.2.1-.1.1a.349.349,0,0,1-.2.1.1.1,0,0,0-.1.1l-.1.1-.1.1-.1.1-.1.1-.1.1-.1.1-.1.1a.349.349,0,0,0-.1.2c0,.1-.1.1-.2.2s-.2.2-.2.3l-.1.1c0,.1-.1.1-.1.2a.1.1,0,0,1-.1.1.349.349,0,0,0-.1.2.1.1,0,0,1-.1.1.349.349,0,0,0-.1.2l-.1.1a.1.1,0,0,1-.1.1l-.1.2-.1.2c0,.1-.1.1-.1.2l-.1.1v.1c0,.1-.1.1-.1.2l-.1.1a.52.52,0,0,0-.2.4c0,.2-.1.2-.2.4a.1.1,0,0,1-.1.1l-.1.3a.1.1,0,0,1-.1.1.349.349,0,0,1-.1.2c0,.1,0,.1-.1.2a.349.349,0,0,1-.1.2c0,.1,0,.1-.1.2a.349.349,0,0,1-.1.2.1.1,0,0,1-.1.1c0,.1-.1.2-.1.3v.1a.6.6,0,0,0-.1.4h0c0,.1-.1.2-.1.4v.1c0,.1-.1.2-.1.3v.2c0,.1,0,.1-.1.2h0v.2c0,.1,0,.2-.1.2h0v.1a1.268,1.268,0,0,0-.1.6h0a9.616,9.616,0,0,0,8.7,6.1" fill="#243238"/>
          <path d="M372.1,179.4l-.9-.3c-.1,0-.1,0-.2-.1h0a10.961,10.961,0,0,1-2.1-1.4h0l-.1-.1-.1-.1-.1-.1-.1-.1h0a11.355,11.355,0,0,1-1.5-2.3h0l-.1-.2v-.2c-.1-.3-.2-.6-.3-1a11.472,11.472,0,0,1-9.1-5.4,19.727,19.727,0,0,0-.4,3.5v2.6a.6.6,0,0,0,.1.4v1.6c0,.1,0,.1.1.2,0,.1,0,.1.1.2,0,.1,0,.1.1.2s0,.1.1.2,0,.1.1.2,0,.1.1.2c0,.1.1.2.1.3s0,.1.1.2.1.1.1.2,0,.1.1.2c0,.1.1.1.1.2l.1.2c0,.1.1.1.1.2s0,.1.1.2v.1c0,.1.1.1.1.2s.1.1.1.2a.349.349,0,0,0,.1.2.1.1,0,0,0,.1.1v.1a.349.349,0,0,0,.1.2.1.1,0,0,0,.1.1c.1.1.1.2.2.4l.2.4a.1.1,0,0,0,.1.1c.1.1.1.2.2.2l.1.1c0,.1.1.1.1.2l.1.1c0,.1.1.1.1.2l.1.1.2.2.1.1c.1.1.1.2.2.2l.1.1.3.3h0c.1.1.2.2.2.3l.1.1.2.2.1.1c0,.1.1.1.2.2h0l.1.1.1.1.2.2h0a.1.1,0,0,1,.1.1,1.756,1.756,0,0,0,.5.4h0a11.878,11.878,0,0,0,9-5.4" fill="#3b4b54"/>
          <path d="M380.2,177.5a5.547,5.547,0,0,1-.8.6.349.349,0,0,1-.2.1h0a6.963,6.963,0,0,1-2.3,1.1h-.6a8.627,8.627,0,0,1-2.8.2H373c-.3-.1-.7-.1-1-.2a11.136,11.136,0,0,1-9.3,5.1,18.6,18.6,0,0,0,2.8,2.1h0c.1.1.2.1.3.2h.3c.1,0,.1.1.2.1s.1.1.2.1.1.1.2.1.1.1.2.1.1.1.2.1.1.1.2.1.1.1.2.1.1,0,.2.1c.1,0,.1.1.2.1s.1,0,.2.1c.1,0,.2.1.4.1.1,0,.1,0,.2.1.1,0,.1.1.2.1s.1,0,.2.1.1,0,.2.1.1,0,.2.1.1,0,.2.1c.1,0,.1,0,.2.1.1,0,.1,0,.2.1s.1,0,.2.1.1,0,.2,0h.8l.4.1h5.9a.6.6,0,0,0,.4-.1h0a.756.756,0,0,0,.4-.1h.1a.367.367,0,0,0,.3-.1h.2c.1,0,.1,0,.2-.1h.2c.1,0,.2,0,.2-.1h.1c.2-.1.4-.1.6-.2h0a12.309,12.309,0,0,0-.1-10.6" fill="#0883a5"/>
          <path d="M382.5,169.6c.1.3.1.7.2,1v.2h0a7.634,7.634,0,0,1-.2,2.6h0v.6h0a11.507,11.507,0,0,1-1.2,2.5h0c0,.1-.1.1-.2.2l-.1.1a.1.1,0,0,1-.1.1,2.336,2.336,0,0,1-.7.7,11.363,11.363,0,0,1-.2,10.6,18.252,18.252,0,0,0,3.2-1.4h0c.1-.1.2-.1.3-.2h.2a.1.1,0,0,0,.1-.1c.1,0,.1-.1.2-.1s.1-.1.2-.1.1-.1.2-.1l.2-.1c.1,0,.1-.1.2-.1s.1-.1.2-.1l.2-.1.1-.1c.1,0,.1-.1.2-.1a.1.1,0,0,0,.1-.1c.1-.1.2-.2.3-.2l.1-.1.2-.1.1-.1a.349.349,0,0,1,.2-.1.1.1,0,0,0,.1-.1l.1-.1.1-.1.1-.1.1-.1.1-.1.1-.1.1-.1a.349.349,0,0,0,.1-.2c0-.1.1-.1.2-.2s.2-.2.2-.3l.1-.1a.349.349,0,0,0,.1-.2.1.1,0,0,1,.1-.1.349.349,0,0,0,.1-.2.1.1,0,0,1,.1-.1c0-.1.1-.1.1-.2a.1.1,0,0,1,.1-.1.1.1,0,0,1,.1-.1l.1-.2.1-.2c0-.1.1-.1.1-.2l.1-.1v-.1c0-.1.1-.1.1-.2l.1-.1a.758.758,0,0,0,.2-.4.758.758,0,0,1,.2-.4.1.1,0,0,1,.1-.1l.1-.2a.1.1,0,0,1,.1-.1.349.349,0,0,1,.1-.2c0-.1,0-.1.1-.2a.349.349,0,0,1,.1-.2c0-.1,0-.1.1-.2a.349.349,0,0,1,.1-.2.1.1,0,0,1,.1-.1c0-.1.1-.2.1-.3v-.1a.6.6,0,0,0,.1-.4h0c0-.1.1-.2.1-.4v-.1c0-.1.1-.2.1-.3v-.2c0-.1,0-.1.1-.2h0v-.2c0-.1,0-.2.1-.2h0v-.1a1.268,1.268,0,0,0,.1-.6h0a9.415,9.415,0,0,0-8.7-6.2" fill="#00aed1"/>
          <path d="M376.9,163.5l.9.3c.1,0,.1,0,.2.1h0a10.961,10.961,0,0,1,2.1,1.4h0l.1.1.1.1.1.1.1.1h0A11.355,11.355,0,0,1,382,168h0a.349.349,0,0,0,.1.2v.2c.1.3.2.6.3,1a11.472,11.472,0,0,1,9.1,5.4,19.727,19.727,0,0,0,.4-3.5v-2.6a.756.756,0,0,0-.1-.4v-1.6c0-.1,0-.1-.1-.2,0-.1,0-.1-.1-.2,0-.1,0-.1-.1-.2s0-.1-.1-.2,0-.1-.1-.2,0-.1-.1-.2c0-.1-.1-.2-.1-.3s0-.1-.1-.2-.1-.1-.1-.2,0-.1-.1-.2c0-.1-.1-.1-.1-.2l-.1-.2c0-.1-.1-.1-.1-.2s0-.1-.1-.2v-.1c0-.1-.1-.1-.1-.2s-.1-.1-.1-.2a.349.349,0,0,0-.1-.2.1.1,0,0,0-.1-.1v-.1a.349.349,0,0,0-.1-.2.1.1,0,0,0-.1-.1c-.1-.1-.1-.2-.2-.4l-.2-.4a.1.1,0,0,0-.1-.1c-.1-.1-.1-.2-.2-.2l-.1-.1c0-.1-.1-.1-.1-.2l-.1-.1c0-.1-.1-.1-.1-.2l-.1-.1-.2-.2-.1-.1c-.1-.1-.1-.2-.2-.2l-.1-.1-.3-.3h0c-.1-.1-.2-.2-.2-.3l-.1-.1-.2-.2-.1-.1c0-.1-.1-.1-.2-.2h0l-.1-.1-.1-.1-.2-.2h0a.1.1,0,0,1-.1-.1,1.756,1.756,0,0,0-.5-.4h0a12.167,12.167,0,0,0-9,5.4" fill="#027c68"/>
          <path d="M368.8,165.5a5.547,5.547,0,0,1,.8-.6.349.349,0,0,1,.2-.1h0a6.963,6.963,0,0,1,2.3-1.1h.6a8.627,8.627,0,0,1,2.8-.2h.5c.3.1.7.1,1,.2a11.136,11.136,0,0,1,9.3-5.1,18.6,18.6,0,0,0-2.8-2.1h0c-.1-.1-.2-.1-.3-.2h-.3c-.1,0-.1-.1-.2-.1s-.1-.1-.2-.1-.1-.1-.2-.1-.1-.1-.2-.1-.1-.1-.2-.1-.1-.1-.2-.1-.1-.1-.2-.1-.1,0-.2-.1c-.1,0-.1-.1-.2-.1l-.2-.1c-.1,0-.2-.1-.4-.1-.1,0-.1,0-.2-.1-.1,0-.1-.1-.2-.1s-.1,0-.2-.1-.1,0-.2-.1-.1,0-.2-.1-.1,0-.2-.1c-.1,0-.1,0-.2-.1-.1,0-.1,0-.2-.1s-.1,0-.2-.1h-1l-.4-.1h-6l-.4.1h0l-.4.1h-.1a.367.367,0,0,0-.3.1h-.2c-.1,0-.1,0-.2.1h-.2c-.1,0-.2,0-.2.1h-.1c-.2.1-.4.1-.6.2h0a12.316,12.316,0,0,0,.2,10.6" fill="#00b199"/>
        </g>
      </g>
    </g>
    <g clip-path="url(#n)">
      <g clip-path="url(#n)">
        <g>
          <path d="M138.4,173.4c-.1-.3-.1-.7-.2-1v-.2h0a7.634,7.634,0,0,1,.2-2.6h0V169h0a11.507,11.507,0,0,1,1.2-2.5h0c0-.1.1-.1.2-.2l.1-.1a.1.1,0,0,1,.1-.1,2.336,2.336,0,0,1,.7-.7,11.363,11.363,0,0,1,.2-10.6,18.252,18.252,0,0,0-3.2,1.4h0c-.1.1-.2.1-.3.2h-.2a.1.1,0,0,0-.1.1c-.1,0-.1.1-.2.1s-.1.1-.2.1-.1.1-.2.1-.1.1-.2.1-.1.1-.2.1-.1.1-.2.1-.1.1-.2.1a.1.1,0,0,0-.1.1.349.349,0,0,1-.2.1.1.1,0,0,0-.1.1c-.1.1-.2.2-.3.2l-.1.1-.2.1-.1.1a.349.349,0,0,1-.2.1.1.1,0,0,0-.1.1l-.1.1-.1.1-.1.1-.1.1-.1.1-.1.1-.1.1a.349.349,0,0,0-.1.2c0,.1-.1.1-.2.2s-.2.2-.2.3l-.1.1c0,.1-.1.1-.1.2a.1.1,0,0,1-.1.1.349.349,0,0,0-.1.2.1.1,0,0,1-.1.1.349.349,0,0,0-.1.2l-.1.1a.1.1,0,0,1-.1.1l-.1.2-.1.2c0,.1-.1.1-.1.2l-.1.1v.1c0,.1-.1.1-.1.2l-.1.1a.52.52,0,0,0-.2.4c0,.2-.1.2-.2.4a.1.1,0,0,1-.1.1l-.1.3a.1.1,0,0,1-.1.1.349.349,0,0,1-.1.2c0,.1,0,.1-.1.2a.349.349,0,0,1-.1.2c0,.1,0,.1-.1.2a.349.349,0,0,1-.1.2.1.1,0,0,1-.1.1c0,.1-.1.2-.1.3v.1a.6.6,0,0,0-.1.4h0c0,.1-.1.2-.1.4v.1c0,.1-.1.2-.1.3v.2c0,.1,0,.1-.1.2h0v.2c0,.1,0,.2-.1.2h0v.1a1.268,1.268,0,0,0-.1.6h0a9.616,9.616,0,0,0,8.7,6.1" fill="#243238"/>
          <path d="M144.1,179.4l-.9-.3c-.1,0-.1,0-.2-.1h0a10.961,10.961,0,0,1-2.1-1.4h0l-.1-.1-.1-.1-.1-.1-.1-.1h0a11.355,11.355,0,0,1-1.5-2.3h0l-.1-.2v-.2c-.1-.3-.2-.6-.3-1a11.472,11.472,0,0,1-9.1-5.4,19.727,19.727,0,0,0-.4,3.5v2.6a.6.6,0,0,0,.1.4v1.6c0,.1,0,.1.1.2,0,.1,0,.1.1.2,0,.1,0,.1.1.2s0,.1.1.2,0,.1.1.2,0,.1.1.2c0,.1.1.2.1.3s0,.1.1.2.1.1.1.2,0,.1.1.2c0,.1.1.1.1.2l.1.2c0,.1.1.1.1.2s0,.1.1.2v.1c0,.1.1.1.1.2s.1.1.1.2a.349.349,0,0,0,.1.2.1.1,0,0,0,.1.1v.1a.349.349,0,0,0,.1.2.1.1,0,0,0,.1.1c.1.1.1.2.2.4l.2.4a.1.1,0,0,0,.1.1c.1.1.1.2.2.2l.1.1c0,.1.1.1.1.2l.1.1c0,.1.1.1.1.2l.1.1.2.2.1.1c.1.1.1.2.2.2l.1.1.3.3h0c.1.1.2.2.2.3l.1.1.2.2.1.1c0,.1.1.1.2.2h0l.1.1.1.1.2.2h0a.1.1,0,0,1,.1.1,1.756,1.756,0,0,0,.5.4h0a11.878,11.878,0,0,0,9-5.4" fill="#3b4b54"/>
          <path d="M152.2,177.5a5.547,5.547,0,0,1-.8.6.349.349,0,0,1-.2.1h0a6.963,6.963,0,0,1-2.3,1.1h-.6a8.627,8.627,0,0,1-2.8.2H145c-.3-.1-.7-.1-1-.2a11.136,11.136,0,0,1-9.3,5.1,18.6,18.6,0,0,0,2.8,2.1h0c.1.1.2.1.3.2h.3c.1,0,.1.1.2.1s.1.1.2.1.1.1.2.1.1.1.2.1.1.1.2.1.1.1.2.1.1.1.2.1.1,0,.2.1c.1,0,.1.1.2.1s.1,0,.2.1c.1,0,.2.1.4.1.1,0,.1,0,.2.1.1,0,.1.1.2.1s.1,0,.2.1.1,0,.2.1.1,0,.2.1.1,0,.2.1c.1,0,.1,0,.2.1.1,0,.1,0,.2.1s.1,0,.2.1.1,0,.2,0h.8l.4.1h5.9a.6.6,0,0,0,.4-.1h0a.756.756,0,0,0,.4-.1h.1a.367.367,0,0,0,.3-.1h.2c.1,0,.1,0,.2-.1h.2c.1,0,.2,0,.2-.1h.1c.2-.1.4-.1.6-.2h0a12.309,12.309,0,0,0-.1-10.6" fill="#0883a5"/>
          <path d="M154.5,169.6c.1.3.1.7.2,1v.2h0a7.634,7.634,0,0,1-.2,2.6h0v.6h0a11.507,11.507,0,0,1-1.2,2.5h0c0,.1-.1.1-.2.2l-.1.1a.1.1,0,0,1-.1.1,2.336,2.336,0,0,1-.7.7,11.363,11.363,0,0,1-.2,10.6,18.252,18.252,0,0,0,3.2-1.4h0c.1-.1.2-.1.3-.2h.2a.1.1,0,0,0,.1-.1c.1,0,.1-.1.2-.1s.1-.1.2-.1.1-.1.2-.1l.2-.1c.1,0,.1-.1.2-.1s.1-.1.2-.1l.2-.1.1-.1c.1,0,.1-.1.2-.1a.1.1,0,0,0,.1-.1c.1-.1.2-.2.3-.2l.1-.1.2-.1.1-.1a.349.349,0,0,1,.2-.1.1.1,0,0,0,.1-.1l.1-.1.1-.1.1-.1.1-.1.1-.1.1-.1.1-.1a.349.349,0,0,0,.1-.2c0-.1.1-.1.2-.2s.2-.2.2-.3l.1-.1a.349.349,0,0,0,.1-.2.1.1,0,0,1,.1-.1.349.349,0,0,0,.1-.2.1.1,0,0,1,.1-.1c0-.1.1-.1.1-.2a.1.1,0,0,1,.1-.1.1.1,0,0,1,.1-.1l.1-.2.1-.2c0-.1.1-.1.1-.2l.1-.1v-.1c0-.1.1-.1.1-.2l.1-.1a.758.758,0,0,0,.2-.4.758.758,0,0,1,.2-.4.1.1,0,0,1,.1-.1l.1-.2a.1.1,0,0,1,.1-.1.349.349,0,0,1,.1-.2c0-.1,0-.1.1-.2a.349.349,0,0,1,.1-.2c0-.1,0-.1.1-.2a.349.349,0,0,1,.1-.2.1.1,0,0,1,.1-.1c0-.1.1-.2.1-.3v-.1a.6.6,0,0,0,.1-.4h0c0-.1.1-.2.1-.4v-.1c0-.1.1-.2.1-.3v-.2c0-.1,0-.1.1-.2h0v-.2c0-.1,0-.2.1-.2h0v-.1a1.268,1.268,0,0,0,.1-.6h0a9.415,9.415,0,0,0-8.7-6.2" fill="#00aed1"/>
          <path d="M148.9,163.5l.9.3c.1,0,.1,0,.2.1h0a10.961,10.961,0,0,1,2.1,1.4h0l.1.1.1.1.1.1.1.1h0A11.355,11.355,0,0,1,154,168h0l.1.2v.2c.1.3.2.6.3,1a11.472,11.472,0,0,1,9.1,5.4,19.727,19.727,0,0,0,.4-3.5v-2.6a.756.756,0,0,0-.1-.4v-1.6c0-.1,0-.1-.1-.2,0-.1,0-.1-.1-.2,0-.1,0-.1-.1-.2s0-.1-.1-.2,0-.1-.1-.2,0-.1-.1-.2c0-.1-.1-.2-.1-.3s0-.1-.1-.2-.1-.1-.1-.2,0-.1-.1-.2c0-.1-.1-.1-.1-.2l-.1-.2c0-.1-.1-.1-.1-.2s0-.1-.1-.2v-.1c0-.1-.1-.1-.1-.2s-.1-.1-.1-.2a.349.349,0,0,0-.1-.2.1.1,0,0,0-.1-.1v-.1a.349.349,0,0,0-.1-.2.1.1,0,0,0-.1-.1c-.1-.1-.1-.2-.2-.4l-.2-.4a.1.1,0,0,0-.1-.1c-.1-.1-.1-.2-.2-.2l-.1-.1c0-.1-.1-.1-.1-.2l-.1-.1c0-.1-.1-.1-.1-.2l-.1-.1-.2-.2-.1-.1c-.1-.1-.1-.2-.2-.2l-.1-.1-.3-.3h0c-.1-.1-.2-.2-.2-.3l-.1-.1-.2-.2-.1-.1c0-.1-.1-.1-.2-.2h0l-.1-.1-.1-.1-.2-.2h0a.1.1,0,0,1-.1-.1,1.756,1.756,0,0,0-.5-.4h0a12.167,12.167,0,0,0-9,5.4" fill="#027c68"/>
          <path d="M140.8,165.5a5.547,5.547,0,0,1,.8-.6.349.349,0,0,1,.2-.1h0a6.963,6.963,0,0,1,2.3-1.1h.6a8.627,8.627,0,0,1,2.8-.2h.5c.3.1.7.1,1,.2a11.136,11.136,0,0,1,9.3-5.1,18.6,18.6,0,0,0-2.8-2.1h0c-.1-.1-.2-.1-.3-.2h-.3c-.1,0-.1-.1-.2-.1s-.1-.1-.2-.1-.1-.1-.2-.1-.1-.1-.2-.1-.1-.1-.2-.1-.1-.1-.2-.1-.1-.1-.2-.1-.1,0-.2-.1c-.1,0-.1-.1-.2-.1l-.2-.1c-.1,0-.2-.1-.4-.1-.1,0-.1,0-.2-.1-.1,0-.1-.1-.2-.1s-.1,0-.2-.1-.1,0-.2-.1-.1,0-.2-.1-.1,0-.2-.1c-.1,0-.1,0-.2-.1-.1,0-.1,0-.2-.1s-.1,0-.2-.1h-1l-.4-.1h-6l-.4.1h0l-.4.1h-.1a.367.367,0,0,0-.3.1h-.2c-.1,0-.1,0-.2.1h-.2c-.1,0-.2,0-.2.1h-.1c-.2.1-.4.1-.6.2h0a12.316,12.316,0,0,0,.2,10.6" fill="#00b199"/>
        </g>
      </g>
    </g>
    <g>
      <path d="M387.5,398.5v-2h-2v-2h-22v2h-2v2h-2v16h30v-16Zm-23-3h20v1h-20Zm23,17h-26v-12h26Z"/>
      <polygon points="377.5 407.5 378.5 407.5 378.5 406.5 378.5 405.5 377.5 405.5 377.5 406.5 371.5 406.5 371.5 405.5 370.5 405.5 370.5 406.5 370.5 407.5 371.5 407.5 377.5 407.5"/>
    </g>
    <circle cx="259.5" cy="32.5" r="32" fill="#fff" stroke="#000" stroke-miterlimit="10"/>
    <g>
      <path d="M263.4,43.6l-7.6.5a1.32,1.32,0,0,1-1.4-1.1h0a1.24,1.24,0,0,1,1.2-1.3l7.6-.5a1.41,1.41,0,0,1,1.4,1.1h0a1.389,1.389,0,0,1-1.2,1.3Z" fill="#2e3737"/>
      <path d="M263.4,47.1l-7.6.5a1.32,1.32,0,0,1-1.4-1.1h0a1.24,1.24,0,0,1,1.2-1.3l7.6-.4a1.41,1.41,0,0,1,1.4,1.1h0A1.216,1.216,0,0,1,263.4,47.1Z" fill="#2e3737"/>
      <path d="M255.6,48.9h-.1a4,4,0,0,0,4.5,3.6,3.959,3.959,0,0,0,3.6-4.1v-.1Z" fill="#586565"/>
      <g>
        <path d="M271.5,24.1a12.007,12.007,0,0,0-24,0,11.432,11.432,0,0,0,3,7.7c1.9,2.3,2.8,3,2.8,6.8v.3a1,1,0,0,0,1,1h10.2a.945.945,0,0,0,1-1v-.2c0-4,1-4.6,3.1-7.2h0A10.781,10.781,0,0,0,271.5,24.1Z" fill="#fce77f"/>
        <path d="M268.8,31.5l.1-.2C268.9,31.4,268.9,31.4,268.8,31.5Z" fill="#fce77f"/>
      </g>
      <path d="M271.5,24.1a11.824,11.824,0,0,0-12-11.6V39.9h5.1a.945.945,0,0,0,1-1v-.2c0-4,1-4.6,3.1-7.2h0A11.167,11.167,0,0,0,271.5,24.1Z" fill="#fcd432"/>
      <path d="M264.5,46.1v-.4a.945.945,0,0,0-1.1-.9l-3.9.3v2.4l4.1-.3C264.1,47.1,264.6,46.6,264.5,46.1Z" fill="#030506"/>
      <path d="M264.5,42.5v-.4a.945.945,0,0,0-1.1-.9l-3.9.3v2.4l4.1-.3a1.018,1.018,0,0,0,.9-1.1Z" fill="#030506"/>
      <path d="M263.5,48.3l-4,.3v3.9a4,4,0,0,0,4-4.2Z" fill="#3d4747"/>
      <ellipse cx="259.5" cy="24.3" rx="7.4" ry="7.2" fill="#975ad1"/>
      <path d="M259.5,17.1V31.6a7.2,7.2,0,1,0,.4-14.4A.247.247,0,0,0,259.5,17.1Z" fill="#fc42a0"/>
      <path d="M265.2,28.9a7.018,7.018,0,0,0,1.6-5.9l-7.4,1.3-4.8,5.5A7.657,7.657,0,0,0,265.2,28.9Z" fill="#64bc46"/>
    </g>
    <circle cx="374.5" cy="32.5" r="32" fill="#fff" stroke="#000" stroke-miterlimit="10"/>
    <g>
      <path d="M378.4,43.6l-7.6.5a1.32,1.32,0,0,1-1.4-1.1h0a1.24,1.24,0,0,1,1.2-1.3l7.6-.5a1.41,1.41,0,0,1,1.4,1.1h0a1.389,1.389,0,0,1-1.2,1.3Z" fill="#2e3737"/>
      <path d="M378.4,47.1l-7.6.5a1.32,1.32,0,0,1-1.4-1.1h0a1.24,1.24,0,0,1,1.2-1.3l7.6-.4a1.41,1.41,0,0,1,1.4,1.1h0A1.216,1.216,0,0,1,378.4,47.1Z" fill="#2e3737"/>
      <path d="M370.6,48.9h-.1a4,4,0,0,0,4.5,3.6,3.959,3.959,0,0,0,3.6-4.1v-.1Z" fill="#586565"/>
      <g>
        <path d="M386.5,24.1a12.007,12.007,0,0,0-24,0,11.432,11.432,0,0,0,3,7.7c1.9,2.3,2.8,3,2.8,6.8v.3a1,1,0,0,0,1,1h10.2a.945.945,0,0,0,1-1v-.2c0-4,1-4.6,3.1-7.2h0A10.781,10.781,0,0,0,386.5,24.1Z" fill="#fce77f"/>
        <path d="M383.8,31.5l.1-.2C383.9,31.4,383.9,31.4,383.8,31.5Z" fill="#fce77f"/>
      </g>
      <path d="M386.5,24.1a11.824,11.824,0,0,0-12-11.6V39.9h5.1a.945.945,0,0,0,1-1v-.2c0-4,1-4.6,3.1-7.2h0A11.167,11.167,0,0,0,386.5,24.1Z" fill="#fcd432"/>
      <path d="M379.5,46.1v-.4a.945.945,0,0,0-1.1-.9l-3.9.3v2.4l4.1-.3C379.1,47.1,379.6,46.6,379.5,46.1Z" fill="#030506"/>
      <path d="M379.5,42.5v-.4a.945.945,0,0,0-1.1-.9l-3.9.3v2.4l4.1-.3a1.018,1.018,0,0,0,.9-1.1Z" fill="#030506"/>
      <path d="M378.5,48.3l-4,.3v3.9a4,4,0,0,0,4-4.2Z" fill="#3d4747"/>
      <ellipse cx="374.5" cy="24.3" rx="7.4" ry="7.2" fill="#975ad1"/>
      <path d="M374.5,17.1V31.6a7.2,7.2,0,0,0,.4-14.4A.247.247,0,0,0,374.5,17.1Z" fill="#fc42a0"/>
      <path d="M380.2,28.9a7.018,7.018,0,0,0,1.6-5.9l-7.4,1.3-4.8,5.5A7.657,7.657,0,0,0,380.2,28.9Z" fill="#64bc46"/>
    </g>
    <circle cx="374.5" cy="550.5" r="32" fill="#fff" stroke="#000" stroke-miterlimit="10"/>
    <g>
      <path d="M381.4,300.7a1.974,1.974,0,0,0-1.2,1.8l3.4,2L375,309.6l-8.6-5.2,3.3-1.9a2.471,2.471,0,0,0-1.2-1.8l-6.6,3.7V319L375,326.5l13.091-7.8V304.5Zm-7.7,22.7-9.394-5.8V305.7l9.394,5.8Zm11.892-6.2-9.394,6V311.3l9.394-5.8Z" fill="#0a4169"/>
      <path d="M380.5,300.1l-2.4-1.3a4.95,4.95,0,0,1-.8,2l2,1.2A2.646,2.646,0,0,1,380.5,300.1Z" fill="#0a4169"/>
      <path d="M372.5,298.5v.1a2.5,2.5,0,0,0,.8,1.8l1.6-.9,1.3.8a1.993,1.993,0,0,0,.7-1.6.617.617,0,0,0-.1-.4l-1.9-1.1Zm-1.9,3.5,1.9-1.1a3.1,3.1,0,0,1-.9-1.8l-2.1,1.2a2.458,2.458,0,0,1,1.1,1.7Z" fill="#0a4169"/>
      <circle cx="374.802" cy="308.599" r="2.199" fill="#07aed1"/>
      <circle cx="374.802" cy="288.699" r="2.199" fill="#87c632"/>
      <circle cx="382.397" cy="302.699" r="2.199" fill="#87c632"/>
      <circle cx="367.506" cy="302.699" r="2.199" fill="#87c632"/>
      <circle cx="382.397" cy="292.699" r="2.199" fill="#07aed1"/>
      <circle cx="367.606" cy="293" r="2.199" fill="#07aed1"/>
      <path d="M384.594,302.7a2.1,2.1,0,0,0-1.9-2.2h-.2v4.3a2.047,2.047,0,0,0,2.192-1.894V302.8a.1.1,0,0,1-.1-.1h.007Z" fill="none"/>
      <path d="M380.3,302.7a2.1,2.1,0,0,0,1.9,2.2h.2v-4.3a2.048,2.048,0,0,0-2.1,2v0C380.3,302.63,380.3,302.665,380.3,302.7Z" fill="none"/>
      <path d="M374.8,296.4a2.218,2.218,0,0,0-2.2,2.2h0a2.1,2.1,0,0,0,1.9,2.2h.2a2.1,2.1,0,0,0,2.2-1.9v-.2a2.1,2.1,0,0,0-1.9-2.2C375,296.4,374.9,296.4,374.8,296.4Z" fill="#87c632"/>
    </g>
    <g>
      <g mask="url(#p)">
        <rect x="358.385" y="534.5" width="31.979" height="32" fill="url(#q)"/>
      </g>
      <path d="M371.038,544.5h-8v-8h8Zm-6-2h4v-4h-4Z" fill="#001d6c"/>
      <path d="M377.033,548.5h-6v8h8v-6h6v-8h-8Zm0,6h-4v-4h4Zm6-10v4h-4v-4Z" fill="#001d6c"/>
    </g>
  </g>
  <text id="headerSVG.prPipeline" transform="translate(125.022 85.156)" font-size="14" font-family="IBMPlexSans, IBM Plex Sans">PR Pipeline</text>
  <text id="headerSVG.cra" transform="translate(245.022 85.156)" font-size="14" font-family="IBMPlexSans, IBM Plex Sans">CRA</text>
  <text id="headerSVG.devopsInsights" transform="translate(351.022 85.156)" font-size="14" font-family="IBMPlexSans, IBM Plex Sans">DevOps Insights</text>
  <text id="headerSVG.keyProtect" transform="translate(351.022 359.156)" font-size="14" font-family="IBMPlexSans, IBM Plex Sans">Key Protect</text>
  <text id="headerSVG.artifactory" transform="translate(351.022 459.156)" font-size="14" font-family="IBMPlexSans, IBM Plex Sans">Artifactory</text>
  <text id="headerSVG.cos" transform="translate(351.022 603.156)" font-size="14" font-family="IBMPlexSans, IBM Plex Sans">Cloud Object Storage</text>
  <text id="headerSVG.inventoryRepo" transform="translate(351.022 226.156)" font-size="14" font-family="IBMPlexSans-Bold, IBM Plex Sans" font-weight="700">Inventory Repo</text>
  <text id="headerSVG.issueTracker" transform="translate(15.022 226.156)" font-size="14" font-family="IBMPlexSans-Bold, IBM Plex Sans" font-weight="700">Issue Tracker</text>
  <text id="headerSVG.appRepo" transform="translate(128.022 226.156)" font-size="14" font-family="IBMPlexSans-Bold, IBM Plex Sans" font-weight="700">App Repo</text>
  <text id="headerSVG.ciPipeline" transform="translate(235.022 226.156)" font-size="14" font-family="IBMPlexSans-Bold, IBM Plex Sans" font-weight="700">CI Pipeline</text>
  <text id="headerSVG.cdPipeline" transform="translate(455.022 226.156)" font-size="14" font-family="IBMPlexSans-Bold, IBM Plex Sans" font-weight="700">CD Pipeline</text>
  <text id="headerSVG.vsi" transform="translate(587.022 226.156)" font-size="14" font-family="IBMPlexSans-Bold, IBM Plex Sans" font-weight="700">VSI</text>
</svg>
