<?xml version="1.0" encoding="utf-8"?>
<!-- Generator: Adobe Illustrator 25.0.0, SVG Export Plug-In . SVG Version: 6.00 Build 0)  -->
<svg version="1.1" xmlns="http://www.w3.org/2000/svg" xmlns:xlink="http://www.w3.org/1999/xlink" x="0px" y="0px" width="691.3px"
	 height="652.5px" viewBox="0 0 691.3 652.5" style="enable-background:new 0 0 691.3 652.5;" xml:space="preserve">
<style type="text/css">
	.st0{fill:#F4F4F4;stroke:#0F62FE;stroke-width:2;stroke-miterlimit:10;}
	.st1{fill:none;stroke:#0F62FE;stroke-width:2;stroke-miterlimit:10;}
	.st2{fill:none;stroke:#979797;stroke-width:2;stroke-miterlimit:10;stroke-dasharray:4,4;}
	.st3{fill:none;stroke:#2467F4;stroke-width:2;stroke-miterlimit:10;}
	.st4{fill:none;stroke:#969696;stroke-miterlimit:10;stroke-dasharray:4,4;}
	.st5{fill:none;stroke:#969696;stroke-width:2;stroke-miterlimit:10;}
	.st6{fill:#FFFFFF;stroke:#000000;stroke-miterlimit:10;}
	.st7{fill:#FFFFFF;stroke:#0F62FE;stroke-width:2;stroke-miterlimit:10;}
	.st8{fill:#FD783D;}
	.st9{fill:#FDA578;}
	.st10{fill:none;}
	.st11{fill:#1CB3A0;}
	.st12{fill:#4AD5C3;}
	.st13{filter:url(#Adobe_OpacityMaskFilter);}
	.st14{fill:#FFFFFF;}
	.st15{fill:url(#SVGID_1_);}
	.st16{mask:url(#ad64d206-7b2b-4368-b62d-adee73950f0d_12_);}
	.st17{fill:url(#SVGID_2_);}
	.st18{fill:#032068;}
	.st19{clip-path:url(#SVGID_4_);}
	.st20{clip-path:url(#SVGID_6_);}
	.st21{fill:#273237;}
	.st22{clip-path:url(#SVGID_8_);}
	.st23{fill:#3E4B53;}
	.st24{clip-path:url(#SVGID_10_);}
	.st25{fill:#3881A1;}
	.st26{clip-path:url(#SVGID_12_);}
	.st27{fill:#4BABCC;}
	.st28{clip-path:url(#SVGID_14_);}
	.st29{fill:#357A69;}
	.st30{clip-path:url(#SVGID_16_);}
	.st31{fill:#4EAD99;}
	.st32{filter:url(#Adobe_OpacityMaskFilter_1_);}
	.st33{fill:url(#SVGID_17_);}
	.st34{mask:url(#Color_7_);fill:url(#Color_8_);}
	.st35{fill:#4090FC;}
	.st36{filter:url(#Adobe_OpacityMaskFilter_2_);}
	.st37{fill:url(#SVGID_19_);}
	.st38{mask:url(#SVGID_18_);fill:url(#SVGID_20_);}
	.st39{fill:#2E3737;}
	.st40{fill:#586565;}
	.st41{fill:#FCE77F;}
	.st42{fill:#FCD432;}
	.st43{fill:#030506;}
	.st44{fill:#3D4747;}
	.st45{fill:#975AD1;}
	.st46{fill:#FC42A0;}
	.st47{fill:#64BC46;}
	.st48{clip-path:url(#SVGID_22_);}
	.st49{clip-path:url(#SVGID_24_);}
	.st50{clip-path:url(#SVGID_26_);}
	.st51{clip-path:url(#SVGID_28_);}
	.st52{clip-path:url(#SVGID_30_);}
	.st53{clip-path:url(#SVGID_32_);}
	.st54{clip-path:url(#SVGID_34_);}
	.st55{filter:url(#Adobe_OpacityMaskFilter_3_);}
	.st56{fill:url(#SVGID_36_);}
	.st57{mask:url(#SVGID_35_);fill:url(#SVGID_37_);}
	.st58{clip-path:url(#SVGID_39_);}
	.st59{clip-path:url(#SVGID_41_);}
	.st60{clip-path:url(#SVGID_43_);}
	.st61{clip-path:url(#SVGID_45_);}
	.st62{clip-path:url(#SVGID_47_);}
	.st63{clip-path:url(#SVGID_49_);}
	.st64{clip-path:url(#SVGID_51_);}
	.st65{clip-path:url(#SVGID_53_);}
	.st66{clip-path:url(#SVGID_55_);}
	.st67{clip-path:url(#SVGID_57_);}
	.st68{clip-path:url(#SVGID_59_);}
	.st69{clip-path:url(#SVGID_61_);}
	.st70{clip-path:url(#SVGID_63_);}
	.st71{clip-path:url(#SVGID_65_);}
	.st72{fill:none;stroke:#000000;stroke-miterlimit:10;}
	.st73{clip-path:url(#SVGID_67_);}
	.st74{clip-path:url(#SVGID_69_);}
	.st75{clip-path:url(#SVGID_71_);}
	.st76{clip-path:url(#SVGID_73_);}
	.st77{clip-path:url(#SVGID_75_);}
	.st78{clip-path:url(#SVGID_77_);}
	.st79{clip-path:url(#SVGID_79_);}
	.st80{fill-rule:evenodd;clip-rule:evenodd;fill:#36C5F0;}
	.st81{fill-rule:evenodd;clip-rule:evenodd;fill:#2EB67D;}
	.st82{fill-rule:evenodd;clip-rule:evenodd;fill:#ECB22E;}
	.st83{fill-rule:evenodd;clip-rule:evenodd;fill:#E01E5A;}
	.st84{clip-path:url(#SVGID_81_);}
	.st85{clip-path:url(#SVGID_83_);}
	.st86{clip-path:url(#SVGID_85_);}
	.st87{clip-path:url(#SVGID_87_);}
	.st88{clip-path:url(#SVGID_89_);}
	.st89{clip-path:url(#SVGID_91_);}
	.st90{clip-path:url(#SVGID_93_);}
	.st91{fill:#FBFBFB;}
	.st92{fill:#F5C144;}
	.st93{filter:url(#Adobe_OpacityMaskFilter_4_);}
	.st94{fill:url(#SVGID_95_);}
	.st95{mask:url(#SVGID_94_);fill:url(#SVGID_96_);}
	.st96{clip-path:url(#SVGID_98_);}
	.st97{clip-path:url(#SVGID_100_);}
	.st98{clip-path:url(#SVGID_102_);}
	.st99{clip-path:url(#SVGID_104_);}
	.st100{clip-path:url(#SVGID_106_);}
	.st101{clip-path:url(#SVGID_108_);}
	.st102{clip-path:url(#SVGID_110_);}
	.st103{fill:#FFFFFF;stroke:#2467F4;stroke-width:2;stroke-miterlimit:10;}
	.st104{fill:#EC7F4C;}
	.st105{fill:#F0A780;}
	.st106{fill:#53AF9F;}
	.st107{fill:#73D1C2;}
	.st108{fill:#303737;}
	.st109{fill:#5A6565;}
	.st110{fill:#F8E58C;}
	.st111{fill:#F5D356;}
	.st112{fill:#3F4747;}
	.st113{fill:#8D61C9;}
	.st114{fill:#E8559D;}
	.st115{fill:#7AB757;}
	.st116{fill:#2B73F5;}
	.st117{clip-path:url(#SVGID_112_);}
	.st118{clip-path:url(#SVGID_114_);}
	.st119{clip-path:url(#SVGID_116_);}
	.st120{clip-path:url(#SVGID_118_);}
	.st121{clip-path:url(#SVGID_120_);}
	.st122{clip-path:url(#SVGID_122_);}
	.st123{clip-path:url(#SVGID_124_);}
	.st124{fill:#5291F3;}
	.st125{filter:url(#Adobe_OpacityMaskFilter_5_);}
	.st126{fill:url(#SVGID_126_);}
	.st127{mask:url(#SVGID_125_);fill:url(#SVGID_127_);}
	.st128{fill:#74A0D0;}
	.st129{clip-path:url(#SVGID_129_);}
	.st130{clip-path:url(#SVGID_131_);}
	.st131{clip-path:url(#SVGID_133_);}
	.st132{clip-path:url(#SVGID_135_);}
	.st133{clip-path:url(#SVGID_137_);}
	.st134{clip-path:url(#SVGID_139_);}
	.st135{clip-path:url(#SVGID_141_);}
	.st136{clip-path:url(#SVGID_143_);}
	.st137{clip-path:url(#SVGID_145_);}
	.st138{clip-path:url(#SVGID_147_);}
	.st139{clip-path:url(#SVGID_149_);}
	.st140{clip-path:url(#SVGID_151_);}
	.st141{clip-path:url(#SVGID_153_);}
	.st142{clip-path:url(#SVGID_155_);}
	.st143{clip-path:url(#SVGID_157_);}
	.st144{clip-path:url(#SVGID_159_);}
	.st145{clip-path:url(#SVGID_161_);}
	.st146{clip-path:url(#SVGID_163_);}
	.st147{clip-path:url(#SVGID_165_);}
	.st148{clip-path:url(#SVGID_167_);}
	.st149{clip-path:url(#SVGID_169_);}
	.st150{filter:url(#Adobe_OpacityMaskFilter_6_);}
	.st151{fill:url(#SVGID_171_);}
	.st152{mask:url(#SVGID_170_);fill:url(#SVGID_172_);}
	.st153{clip-path:url(#SVGID_174_);}
	.st154{clip-path:url(#SVGID_176_);}
	.st155{clip-path:url(#SVGID_178_);}
	.st156{clip-path:url(#SVGID_180_);}
	.st157{clip-path:url(#SVGID_182_);}
	.st158{clip-path:url(#SVGID_184_);}
	.st159{clip-path:url(#SVGID_186_);}
	.st160{clip-path:url(#SVGID_188_);}
	.st161{clip-path:url(#SVGID_190_);}
	.st162{clip-path:url(#SVGID_192_);}
	.st163{clip-path:url(#SVGID_194_);}
	.st164{clip-path:url(#SVGID_196_);}
	.st165{clip-path:url(#SVGID_198_);}
	.st166{clip-path:url(#SVGID_200_);}
	.st167{clip-path:url(#SVGID_202_);}
	.st168{clip-path:url(#SVGID_204_);}
	.st169{clip-path:url(#SVGID_206_);}
	.st170{clip-path:url(#SVGID_208_);}
	.st171{clip-path:url(#SVGID_210_);}
	.st172{clip-path:url(#SVGID_212_);}
	.st173{clip-path:url(#SVGID_214_);}
	.st174{fill-rule:evenodd;clip-rule:evenodd;fill:#181616;}
	.st175{fill:#4D9BD6;}
	.st176{fill:none;stroke:#FFFFFF;stroke-miterlimit:10;}
	.st177{fill:none;stroke:#FFFFFF;stroke-width:0.75;stroke-miterlimit:10;}
	.st178{filter:url(#Adobe_OpacityMaskFilter_7_);}
	.st179{fill:url(#SVGID_215_);}
	.st180{mask:url(#ad64d206-7b2b-4368-b62d-adee73950f0d_7_);}
	.st181{fill:url(#SVGID_216_);}
	.st182{filter:url(#Adobe_OpacityMaskFilter_8_);}
	.st183{fill:url(#SVGID_217_);}
	.st184{mask:url(#ad64d206-7b2b-4368-b62d-adee73950f0d_14_);}
	.st185{fill:url(#SVGID_218_);}
	.st186{filter:url(#Adobe_OpacityMaskFilter_9_);}
	.st187{fill:url(#SVGID_219_);}
	.st188{mask:url(#ad64d206-7b2b-4368-b62d-adee73950f0d_6_);}
	.st189{fill:url(#SVGID_220_);}
	.st190{clip-path:url(#SVGID_222_);}
	.st191{clip-path:url(#SVGID_224_);}
	.st192{clip-path:url(#SVGID_226_);}
	.st193{clip-path:url(#SVGID_228_);}
	.st194{clip-path:url(#SVGID_230_);}
	.st195{clip-path:url(#SVGID_232_);}
	.st196{clip-path:url(#SVGID_234_);}
	.st197{clip-path:url(#SVGID_236_);}
	.st198{clip-path:url(#SVGID_238_);}
	.st199{clip-path:url(#SVGID_240_);}
	.st200{clip-path:url(#SVGID_242_);}
	.st201{clip-path:url(#SVGID_244_);}
	.st202{clip-path:url(#SVGID_246_);}
	.st203{clip-path:url(#SVGID_248_);}
	.st204{fill:#FFFFFF;stroke:#2467F4;stroke-width:2;stroke-miterlimit:10.0003;}
	.st205{filter:url(#Adobe_OpacityMaskFilter_10_);}
	.st206{fill:url(#SVGID_250_);}
	.st207{fill:url(#SVGID_251_);}
	.st208{mask:url(#SVGID_249_);fill:url(#SVGID_252_);}
	.st209{filter:url(#Adobe_OpacityMaskFilter_11_);}
	.st210{fill:url(#SVGID_253_);}
	.st211{fill:url(#SVGID_254_);}
	.st212{fill:url(#SVGID_255_);}
	.st213{mask:url(#Color_9_);fill:url(#Color_10_);}
	.st214{clip-path:url(#SVGID_257_);}
	.st215{clip-path:url(#SVGID_259_);}
	.st216{clip-path:url(#SVGID_261_);}
	.st217{clip-path:url(#SVGID_263_);}
	.st218{clip-path:url(#SVGID_265_);}
	.st219{clip-path:url(#SVGID_267_);}
	.st220{clip-path:url(#SVGID_269_);}
	.st221{clip-path:url(#SVGID_271_);}
	.st222{clip-path:url(#SVGID_273_);}
	.st223{clip-path:url(#SVGID_275_);}
	.st224{clip-path:url(#SVGID_277_);}
	.st225{clip-path:url(#SVGID_279_);}
	.st226{clip-path:url(#SVGID_281_);}
	.st227{clip-path:url(#SVGID_283_);}
	.st228{clip-path:url(#SVGID_285_);}
	.st229{clip-path:url(#SVGID_287_);}
	.st230{clip-path:url(#SVGID_289_);}
	.st231{clip-path:url(#SVGID_291_);}
	.st232{clip-path:url(#SVGID_293_);}
	.st233{clip-path:url(#SVGID_295_);}
	.st234{clip-path:url(#SVGID_297_);}
	.st235{clip-path:url(#SVGID_299_);}
	.st236{clip-path:url(#SVGID_301_);}
	.st237{clip-path:url(#SVGID_303_);}
	.st238{clip-path:url(#SVGID_305_);}
	.st239{clip-path:url(#SVGID_307_);}
	.st240{clip-path:url(#SVGID_309_);}
	.st241{clip-path:url(#SVGID_311_);}
	.st242{filter:url(#Adobe_OpacityMaskFilter_12_);}
	.st243{fill:url(#SVGID_313_);}
	.st244{mask:url(#SVGID_312_);fill:url(#SVGID_314_);}
	.st245{filter:url(#Adobe_OpacityMaskFilter_13_);}
	.st246{fill:url(#SVGID_315_);}
	.st247{mask:url(#ad64d206-7b2b-4368-b62d-adee73950f0d_11_);}
	.st248{fill:url(#SVGID_316_);}
	.st249{filter:url(#Adobe_OpacityMaskFilter_14_);}
	.st250{fill:url(#SVGID_318_);}
	.st251{mask:url(#SVGID_317_);fill:url(#SVGID_319_);}
	.st252{filter:url(#Adobe_OpacityMaskFilter_15_);}
	.st253{fill:url(#SVGID_320_);}
	.st254{mask:url(#Color_11_);fill:url(#Color_12_);}
	.st255{filter:url(#Adobe_OpacityMaskFilter_16_);}
	.st256{fill:url(#SVGID_322_);}
	.st257{mask:url(#SVGID_321_);fill:url(#SVGID_323_);}
	.st258{filter:url(#Adobe_OpacityMaskFilter_17_);}
	.st259{fill:url(#SVGID_324_);}
	.st260{mask:url(#ad64d206-7b2b-4368-b62d-adee73950f0d_10_);}
	.st261{fill:url(#SVGID_325_);}
	.st262{clip-path:url(#SVGID_327_);}
	.st263{clip-path:url(#SVGID_329_);}
	.st264{clip-path:url(#SVGID_331_);}
	.st265{clip-path:url(#SVGID_333_);}
	.st266{clip-path:url(#SVGID_335_);}
	.st267{clip-path:url(#SVGID_337_);}
	.st268{clip-path:url(#SVGID_339_);}
	.st269{font-family:'IBMPlexSans-Medium';}
	.st270{font-size:11px;}
	.st271{font-family:'IBMPlexSans-Bold';}
	.st272{fill:#161616;}
	.st273{filter:url(#Adobe_OpacityMaskFilter_18_);}
	.st274{fill:url(#SVGID_341_);}
	.st275{mask:url(#SVGID_340_);fill:url(#SVGID_342_);}
	.st276{filter:url(#Adobe_OpacityMaskFilter_19_);}
	.st277{fill:url(#SVGID_343_);}
	.st278{mask:url(#ad64d206-7b2b-4368-b62d-adee73950f0d_3_);}
	.st279{fill:url(#SVGID_344_);}
	.st280{filter:url(#Adobe_OpacityMaskFilter_20_);}
	.st281{fill:url(#SVGID_346_);}
	.st282{mask:url(#SVGID_345_);fill:url(#SVGID_347_);}
	.st283{filter:url(#Adobe_OpacityMaskFilter_21_);}
	.st284{fill:url(#SVGID_348_);}
	.st285{mask:url(#ad64d206-7b2b-4368-b62d-adee73950f0d_9_);}
	.st286{fill:url(#SVGID_349_);}
	.st287{filter:url(#Adobe_OpacityMaskFilter_22_);}
	.st288{fill:url(#SVGID_350_);}
	.st289{mask:url(#ad64d206-7b2b-4368-b62d-adee73950f0d_2_);}
	.st290{fill:url(#SVGID_351_);}
	.st291{filter:url(#Adobe_OpacityMaskFilter_23_);}
	.st292{fill:url(#SVGID_352_);}
	.st293{mask:url(#Color_13_);fill:url(#Color_14_);}
	.st294{filter:url(#Adobe_OpacityMaskFilter_24_);}
	.st295{fill:url(#SVGID_354_);}
	.st296{mask:url(#SVGID_353_);fill:url(#SVGID_355_);}
	.st297{filter:url(#Adobe_OpacityMaskFilter_25_);}
	.st298{fill:url(#SVGID_357_);}
	.st299{mask:url(#SVGID_356_);fill:url(#SVGID_358_);}
	.st300{filter:url(#Adobe_OpacityMaskFilter_26_);}
	.st301{fill:url(#SVGID_359_);}
	.st302{mask:url(#ad64d206-7b2b-4368-b62d-adee73950f0d_8_);}
	.st303{fill:url(#SVGID_360_);}
	.st304{filter:url(#Adobe_OpacityMaskFilter_27_);}
	.st305{fill:url(#SVGID_362_);}
	.st306{mask:url(#SVGID_361_);fill:url(#SVGID_363_);}
	.st307{filter:url(#Adobe_OpacityMaskFilter_28_);}
	.st308{fill:url(#SVGID_364_);}
	.st309{mask:url(#Color_15_);fill:url(#Color_16_);}
	.st310{filter:url(#Adobe_OpacityMaskFilter_29_);}
	.st311{fill:url(#SVGID_366_);}
	.st312{mask:url(#SVGID_365_);fill:url(#SVGID_367_);}
	.st313{filter:url(#Adobe_OpacityMaskFilter_30_);}
	.st314{fill:url(#SVGID_368_);}
	.st315{mask:url(#ad64d206-7b2b-4368-b62d-adee73950f0d_13_);}
	.st316{fill:url(#SVGID_369_);}
	.st317{filter:url(#Adobe_OpacityMaskFilter_31_);}
	.st318{fill:url(#SVGID_370_);}
	.st319{mask:url(#Color_17_);fill:url(#Color_18_);}
	.st320{filter:url(#Adobe_OpacityMaskFilter_32_);}
	.st321{fill:url(#SVGID_372_);}
	.st322{mask:url(#SVGID_371_);fill:url(#SVGID_373_);}
	.st323{filter:url(#Adobe_OpacityMaskFilter_33_);}
	.st324{fill:url(#SVGID_374_);}
	.st325{mask:url(#ad64d206-7b2b-4368-b62d-adee73950f0d_1_);}
	.st326{fill:url(#SVGID_375_);}
	.st327{clip-path:url(#SVGID_377_);}
	.st328{clip-path:url(#SVGID_379_);}
	.st329{clip-path:url(#SVGID_381_);}
	.st330{clip-path:url(#SVGID_383_);}
	.st331{clip-path:url(#SVGID_385_);}
	.st332{clip-path:url(#SVGID_387_);}
	.st333{clip-path:url(#SVGID_389_);}
	.st334{clip-path:url(#SVGID_391_);}
	.st335{clip-path:url(#SVGID_393_);}
	.st336{clip-path:url(#SVGID_395_);}
	.st337{clip-path:url(#SVGID_397_);}
	.st338{clip-path:url(#SVGID_399_);}
	.st339{clip-path:url(#SVGID_401_);}
	.st340{clip-path:url(#SVGID_403_);}
</style>
<g id="Lines_x5F_backgroud">
	<g id="Lines_x5F_backgroud_1_">
		<line class="st3" x1="627.9" y1="181.3" x2="566.9" y2="181.3"/>
		<line class="st3" x1="501.9" y1="180.3" x2="441.9" y2="180.3"/>
		<line class="st3" x1="373.9" y1="181.3" x2="313.9" y2="181.3"/>
		<line class="st3" x1="248.9" y1="181.3" x2="186" y2="181.3"/>
		<line class="st3" x1="122.9" y1="181.3" x2="61.9" y2="181.3"/>
		<polyline class="st3" points="234.2,196.8 250.2,180.8 234.2,164.8 		"/>
		<polyline class="st3" points="106.2,196.8 122.2,180.8 106.2,164.8 		"/>
		<line id="Dashed_lin1_6_" class="st4" x1="281.6" y1="145.5" x2="281.6" y2="109.5"/>
		<line id="Dashed_line2_3_" class="st4" x1="333.9" y1="33.3" x2="361.9" y2="33.3"/>
		<polyline id="Dashed_lin1_8_" class="st4" points="308.9,253.3 308.9,316.3 309.1,316.3 379.9,316.3 		"/>
		<line id="Dashed_lin1_9_" class="st4" x1="532.9" y1="146.3" x2="532.9" y2="37.3"/>
		<line id="Dashed_line2_5_" class="st4" x1="533.9" y1="33.3" x2="451.9" y2="33.3"/>
		<line id="Dashed_line2_6_" class="st4" x1="310.9" y1="163.3" x2="334.9" y2="163.3"/>
		<line id="Dashed_lin1_7_" class="st4" x1="334.9" y1="163.3" x2="334.9" y2="37.3"/>
		<polyline id="Dashed_lin1_10_" class="st4" points="515.4,253.3 515.4,316.3 515.2,316.3 440.4,316.3 		"/>
		<line id="Dashed_lin1_11_" class="st4" x1="406.9" y1="282" x2="406.9" y2="253.3"/>
		<line id="Dashed_lin1_12_" class="st4" x1="406.9" y1="398.8" x2="406.9" y2="370.3"/>
		<line id="Dashed_lin1_13_" class="st4" x1="406.9" y1="542" x2="406.9" y2="487.3"/>
		<line id="Dashed_lin1_14_" class="st4" x1="281.9" y1="513.3" x2="281.9" y2="244.3"/>
		<polyline id="Dashed_lin1_15_" class="st4" points="540.9,253.3 540.9,513.3 541.9,514.3 280.9,514.3 		"/>
		<polyline class="st5" points="289.6,110.3 281.6,102.3 273.6,110.3 		"/>
		<polyline class="st5" points="164.2,99.8 156.2,91.8 148.2,99.8 		"/>
		<polyline class="st5" points="148.2,136 156.2,144 164.2,136 		"/>
		<polyline class="st5" points="317.6,252.8 309.6,244.8 301.6,252.8 		"/>
		<polyline class="st5" points="523.4,252.8 515.4,244.8 507.4,252.8 		"/>
		<polyline class="st5" points="548.4,252.8 540.4,244.8 532.4,252.8 		"/>
		<polyline class="st5" points="362.6,41 370.6,33 362.6,25 		"/>
		<polyline class="st5" points="452.9,41 444.9,33 452.9,25 		"/>
		<polyline class="st3" points="484.9,196.5 500.9,180.5 484.9,164.5 		"/>
		<polyline class="st3" points="610.2,196.8 626.2,180.8 610.2,164.8 		"/>
		<polyline class="st3" points="359.2,196.8 375.2,180.8 359.2,164.8 		"/>
		<line id="Dashed_line2_4_" class="st4" x1="190.9" y1="33.3" x2="235" y2="33.3"/>
		<line id="Dashed_lin1_5_" class="st4" x1="156.2" y1="136.3" x2="156.2" y2="100.3"/>
		<polyline class="st5" points="235.6,41 243.6,33 235.6,25 		"/>
	</g>
</g>
<g id="Icons">
	<g id="CI_Pipeline_9_">
		<circle class="st103" cx="283" cy="180" r="32"/>
		<g id="CI_x5F_CD_x5F_icon_35_">
			<g id="e18fe981-7760-4f0f-92d6-295e583f5df5_35_">
				<g>
					<path class="st104" d="M296.2,182.4c-1.5,6.3-6.8,10.9-13.4,10.9c-4.1,0.1-8-1.8-10.4-5.2l7.2-7.4l0.8,0.8l-0.8-0.8l0,0
						l1.1,1.3l1.7-5.9l-5.8,1.7l1.1,1.1l-1.7,2l-4.9,5c-1-1.7-1.6-3.5-1.7-5.4l-2.1-3.1c-0.1,0.7-0.2,1.5-0.1,2.2
						c0,8.9,7.3,16.3,16.1,16.3c6.9-0.1,13-4.4,15.2-10.9L296.2,182.4z"/>
					<polyline class="st105" points="270.9,185.9 277.6,178.9 276.7,177.7 282.4,176.1 272.4,186 					"/>
				</g>
				<g>
					<path class="st105" d="M283.1,195.6c6.9-0.1,13-4.4,15.2-10.9l-1.1-1.3c-1.9,7.8-9.8,12.5-17.6,10.6
						c-6.7-1.6-11.3-7.7-11.1-14.5v-0.7l-0.8-1.5c-0.1,0.7-0.2,1.5-0.1,2.2c-0.3,8.6,6.6,15.8,15.2,16.1
						C282.9,195.6,283,195.6,283.1,195.6z"/>
					<line class="st10" x1="270.9" y1="186" x2="272.4" y2="186.5"/>
				</g>
			</g>
			<g id="b4a44eff-a6ab-4c1f-a314-3899682236f1_35_">
				<g>
					<path class="st106" d="M269.8,177.2c1.5-6.3,6.8-10.9,13.4-10.9c4.1-0.1,8,1.8,10.4,5.2l-7.2,7.4l-0.6-0.8l0.8,0.8l0,0
						l-1.3-1.3l-1.7,5.9l5.8-1.7l-1.1-1.1l2-2l4.9-5c0.8,1.7,1.4,3.6,1.5,5.4l2.1,3.1c0.1-0.6,0.2-1.3,0.1-2
						c0-8.9-7.2-16.3-16.1-16.3c-6.8,0.1-12.8,4.5-14.9,10.9L269.8,177.2z"/>
					<polyline class="st107" points="293.7,171.5 286.4,178.9 285.4,177.6 283.7,183.5 293.4,173.4 					"/>
				</g>
				<g>
					<path class="st107" d="M282.9,163.9c-6.9,0.1-13,4.4-15.2,10.9l1.1,1.3c1.9-7.8,9.8-12.5,17.6-10.6c6.7,1.6,11.3,7.7,11.1,14.5
						v0.7l1.1,1.5c0.1-0.6,0.2-1.3,0.1-2C298.6,171,291.6,163.9,282.9,163.9z"/>
					<line class="st10" x1="295.1" y1="173.4" x2="293.7" y2="173"/>
				</g>
			</g>
		</g>
	</g>
	<g id="DevOps_x5F_insights_14_">
		<g id="CRA_x5F_icon_9_">
			<circle class="st6" cx="283.1" cy="35.7" r="32"/>
		</g>
	</g>
	<g id="CD_Pipeline_7_">
		<circle class="st103" cx="534" cy="180" r="32"/>
		<g id="CI_x5F_CD_x5F_icon_34_">
			<g id="e18fe981-7760-4f0f-92d6-295e583f5df5_34_">
				<g>
					<path class="st104" d="M547,182c-1.5,6.3-6.8,10.9-13.4,10.9c-4.1,0.1-8-1.8-10.4-5.2l7.2-7.4l0.8,0.8l-0.8-0.8l0,0l1.1,1.3
						l1.7-5.9l-5.8,1.7l1.1,1.1l-1.7,2l-4.9,5c-1-1.7-1.6-3.5-1.7-5.4l-2.1-3.1c-0.1,0.7-0.2,1.5-0.1,2.2c0,8.9,7.3,16.3,16.1,16.3
						c6.9-0.1,13-4.4,15.2-10.9L547,182z"/>
					<polyline class="st105" points="521.6,185.5 528.4,178.5 527.4,177.4 533.2,175.7 523.2,185.7 					"/>
				</g>
				<g>
					<path class="st105" d="M533.1,195.3c6.9-0.1,13-4.4,15.2-10.9l-1.1-1.3c-1.9,7.8-9.8,12.5-17.6,10.6
						c-6.7-1.6-11.3-7.7-11.1-14.5v-0.7l-0.8-1.5c-0.1,0.7-0.2,1.5-0.1,2.2c-0.3,8.6,6.6,15.8,15.2,16.1
						C532.9,195.3,533,195.3,533.1,195.3z"/>
					<line class="st10" x1="521.6" y1="185.7" x2="523.2" y2="186.2"/>
				</g>
			</g>
			<g id="b4a44eff-a6ab-4c1f-a314-3899682236f1_34_">
				<g>
					<path class="st106" d="M520.5,176.9c1.5-6.3,6.8-10.9,13.4-10.9c4.1-0.1,8,1.8,10.4,5.2l-7.2,7.4l-0.6-0.8l0.8,0.8l0,0
						l-1.3-1.3l-1.7,5.9l5.8-1.7l-1.1-1.1l2-2l4.9-5c0.8,1.7,1.4,3.6,1.5,5.4l2.1,3.1c0.1-0.6,0.2-1.3,0.1-2
						c0-8.9-7.2-16.3-16.1-16.3c-6.8,0.1-12.8,4.5-14.9,10.9L520.5,176.9z"/>
					<polyline class="st107" points="544.4,171.1 537.1,178.5 536.1,177.3 534.4,183.2 544.2,173.1 					"/>
				</g>
				<g>
					<path class="st107" d="M533.9,163.6c-6.9,0.1-13,4.4-15.2,10.9l1.1,1.3c1.9-7.8,9.8-12.5,17.6-10.6c6.7,1.6,11.3,7.7,11.1,14.5
						v0.7l1.1,1.5c0.1-0.6,0.2-1.3,0.1-2C549.6,170.7,542.6,163.6,533.9,163.6z"/>
					<line class="st10" x1="545.8" y1="173.1" x2="544.4" y2="172.7"/>
				</g>
			</g>
		</g>
	</g>
	<g id="KeyP_5_">
		<g id="Evidence_32_">
			<circle class="st6" cx="409.5" cy="315" r="32"/>
		</g>
		<g>
			<defs>
				<filter id="Adobe_OpacityMaskFilter" filterUnits="userSpaceOnUse" x="393.5" y="299" width="32" height="32">
					<feColorMatrix  type="matrix" values="1 0 0 0 0  0 1 0 0 0  0 0 1 0 0  0 0 0 1 0"/>
				</filter>
			</defs>
			<mask maskUnits="userSpaceOnUse" x="393.5" y="299" width="32" height="32" id="SVGID_1_">
				<g class="st13">
					<g>
						<g>
							<path class="st14" d="M417.5,303v14.3c0,3.2-1.7,6.2-4.5,7.8l-4.5,2.6l-4.5-2.6c-2.8-1.6-4.5-4.6-4.5-7.8V303H417.5
								 M417.5,301h-18c-1.1,0-2,0.9-2,2v14.3c0,3.9,2.1,7.6,5.5,9.5l5.5,3.2l5.5-3.2c3.4-2,5.5-5.6,5.5-9.5V303
								C419.5,301.9,418.6,301,417.5,301L417.5,301z"/>
						</g>
						<linearGradient id="SVGID_2_" gradientUnits="userSpaceOnUse" x1="405.2398" y1="326.7121" x2="427.2398" y2="304.7121">
							<stop  offset="0.13" style="stop-color:#000000;stop-opacity:0"/>
							<stop  offset="0.38" style="stop-color:#000000"/>
						</linearGradient>
						<polygon class="st17" points="408.5,330 422.5,330 422.5,300 411.5,300 411.5,306 408.5,306 						"/>
					</g>
				</g>
			</mask>
			<linearGradient id="SVGID_4_" gradientUnits="userSpaceOnUse" x1="393.4898" y1="330.9621" x2="425.4898" y2="298.9621">
				<stop  offset="0.1" style="stop-color:#9B76F6"/>
				<stop  offset="0.9" style="stop-color:#2467F4"/>
			</linearGradient>
			<rect x="393.5" y="299" style="mask:url(#SVGID_1_);fill:url(#SVGID_4_);" width="32" height="32"/>
			<path class="st18" d="M419.5,313.1V301h-5v2h3v2h-3v2h3v6.1c-1.7,0.4-3,2-3,3.9c0,2.2,1.8,4,4,4s4-1.8,4-4
				C422.5,315.1,421.2,313.6,419.5,313.1z M418.5,319c-1.1,0-2-0.9-2-2c0-1.1,0.9-2,2-2s2,0.9,2,2C420.5,318.1,419.6,319,418.5,319z
				"/>
		</g>
	</g>
	<g id="Artifacts_5_">
		<g id="Artifacts_13_">
			<g id="Artifacts_14_">
				<g id="Artifacts_58_">
					<g id="Artifacts_59_">
						<circle class="st6" cx="409.5" cy="430.6" r="32"/>
					</g>
				</g>
			</g>
		</g>
	</g>
	<g id="DevOps_x5F_insights_8_">
		<g id="Evidence_14_">
			<circle class="st6" cx="409.5" cy="33.8" r="32"/>
		</g>
		<g id="DevOps_x5F_icon_8_">
			<path class="st108" d="M413.6,44.8l-7.6,0.5c-0.7,0-1.2-0.5-1.4-1.1l0,0c0-0.7,0.5-1.2,1.2-1.3l7.6-0.5c0.7,0,1.2,0.5,1.4,1.1
				l0,0C414.8,44.1,414.3,44.7,413.6,44.8z"/>
			<path class="st108" d="M413.6,48.3l-7.6,0.5c-0.7,0-1.3-0.4-1.4-1.1l0,0c0-0.7,0.5-1.2,1.2-1.3l7.6-0.5c0.7,0,1.2,0.5,1.4,1.1
				l0,0C414.8,47.6,414.3,48.2,413.6,48.3z"/>
			<path class="st109" d="M406,50.3L406,50.3c0.1,2.1,1.9,3.7,4,3.7c2.2,0,4-1.9,4-4.1v-0.1v-0.1L406,50.3z"/>
			<g>
				<path class="st110" d="M421.9,25.5c-0.2-6.6-5.7-11.8-12.2-11.6c-6.2,0.2-11.2,5.3-11.4,11.6c0,2.8,1.1,5.6,3,7.7
					c1.9,2.3,2.8,3,2.8,6.8v0.3c0,0.5,0.5,1,1,1h10c0.5,0,1-0.4,1-1v-0.2c0-4,1-4.6,3-7.2l0,0C420.9,30.9,421.9,28.2,421.9,25.5z"/>
				<path class="st110" d="M419,32.7l0.1-0.2C419.1,32.6,419.1,32.7,419,32.7z"/>
			</g>
			<path class="st111" d="M421.8,25.5c-0.1-6.5-5.4-11.7-11.8-11.6v27.4h5c0.5,0,1-0.4,1-1v-0.2c0-4,1-4.6,3-7.2l0,0
				C420.8,30.9,421.8,28.2,421.8,25.5z"/>
			<path class="st43" d="M415,47.3v-0.4c-0.1-0.6-0.5-1-1.1-1l-3.9,0.3v2.4l4.1-0.3C414.6,48.3,415,47.8,415,47.3L415,47.3z"/>
			<path class="st43" d="M415,43.7v-0.4c-0.1-0.6-0.5-1-1.1-1l-3.9,0.4v2.4l4.1-0.3C414.6,44.7,415,44.2,415,43.7z"/>
			<path class="st112" d="M414,49.5l-4,0.3v3.9C412.2,53.6,414,51.8,414,49.5L414,49.5z"/>
			<ellipse class="st113" cx="409.7" cy="25.5" rx="7.5" ry="7.2"/>
			<path class="st114" d="M410,18.2v14.5c4.1,0.1,7.4-3.1,7.5-7.2C417.4,21.4,414.1,18.1,410,18.2z"/>
			<path class="st115" d="M415.4,30.1c1.4-1.6,2-3.8,1.6-5.9l-7.4,1.3l-4.8,5.5C408,33.6,412.7,33.2,415.4,30.1z"/>
		</g>
	</g>
	<g id="VPC_4_">
		<circle class="st6" cx="658.8" cy="179" r="32"/>
		<path class="st128" d="M682.1,175C682.1,175,682.1,174.8,682.1,175c-0.3-0.3-0.6-0.6-0.9-0.7l-5.8-2.5c-0.6-0.3-1.2-0.3-1.9,0
			l-4.2,1.4v-5.5c0-0.3-0.1-0.6-0.3-0.9l0,0c0,0,0-0.1-0.1-0.1c-0.3-0.4-0.6-0.7-1-1l-6.1-2.6c-0.6-0.3-1.2-0.3-1.9,0l-6.5,2.3
			c-0.4,0.1-0.9,0.4-1.2,0.9l-0.1,0.1c0,0,0,0,0,0.1c-0.1,0.3-0.3,0.6-0.3,0.9v5.5l-0.3,0.1l-5.3-2.3c-0.6-0.3-1.2-0.3-1.9,0
			l-6.9,2.5c-1,0.3-1.6,1.3-1.6,2.2v6.2c0,0.9,0.4,1.6,1.3,2l6.4,3.2c0.6,0.3,1.4,0.3,2,0.1l4.8-1.9v4.3c0,0.9,0.4,1.6,1.3,2
			l6.4,3.2c0.3,0.1,0.6,0.3,1,0.3l0,0l0,0l0,0c0.3,0,0.6,0,0.9-0.1l6.2-2.5c0.9-0.3,1.4-1.2,1.4-2v-4.5l4.6,2.3
			c0.3,0.1,0.7,0.3,1,0.3l0,0l0,0l0,0c0.3,0,0.6,0,1-0.1l6.2-2.5c0.9-0.3,1.4-1.2,1.4-2V177C682.5,175.7,682.4,175.3,682.1,175z
			 M664.5,172.5l2.5,1c-0.4,0.1-0.7,0.4-0.9,0.7l-0.1,0.1c0,0,0,0,0,0.1c-0.1,0.3-0.3,0.6-0.3,0.9l-4.8,1.7v-7.5c0.1,0,0.1,0,0.3,0
			l6.9-2.3v5.2l-3-1.2c-0.4-0.1-0.9,0-1,0.3S664,172.4,664.5,172.5L664.5,172.5L664.5,172.5z M665.2,177.3v3l-3.6-1.6L665.2,177.3
			L665.2,177.3z M659.8,164.2c0.3-0.1,0.6-0.1,0.7,0l5.8,2.5l-5.9,2.2c-0.3,0.1-0.6,0.1-0.9,0l-5.9-2.5L659.8,164.2z M652.2,173.7
			l3.3-1.3c0.4-0.1,0.6-0.6,0.4-1s-0.6-0.6-1-0.4l-2.7,1.2V167l6.9,2.9c0.1,0,0.1,0,0.3,0.1v7.9l-6.6-3.2l0,0l0,0c0,0,0-0.1-0.1-0.1
			C652.6,174.1,652.3,174,652.2,173.7C652.2,173.8,652.2,173.7,652.2,173.7z M658.4,178.5l-4.8,1.7v-4L658.4,178.5z M645,185.5
			l-6.6-3.3c-0.3-0.1-0.6-0.4-0.6-0.9v-6.9l6.9,3c0.1,0,0.1,0,0.3,0.1V185.5z M644.4,176.4l-5.8-2.5l6.1-2.2c0.3-0.1,0.6-0.1,0.7,0
			l5.8,2.5l-5.9,2.2C645,176.6,644.7,176.6,644.4,176.4L644.4,176.4z M649.6,179.5c-0.3-0.1-0.7,0-0.9,0.3s0,0.7,0.3,0.9l0,0l2,1.2
			c-0.1,0.3-0.3,0.6-0.3,1v0.6l-5.8,2v-7.2c0.1,0,0.1,0,0.3,0l6.9-2.7v5.2c-0.1,0-0.1,0-0.1,0.1L649.6,179.5z M659.4,193.3l-6.6-3.3
			c-0.3-0.1-0.6-0.4-0.6-0.9v-6.8l6.9,2.9c0.1,0,0.1,0,0.3,0.1V193.3L659.4,193.3z M658.8,184.2l-5.9-2.5l6.2-2.2
			c0.3-0.1,0.6-0.1,0.7,0l5.5,2.5l0,0l0.3,0.1l-5.9,2.2C659.4,184.4,659.1,184.4,658.8,184.2z M666.6,189.9c0,0.4-0.3,0.7-0.6,0.9
			l-6.6,2.6v-8.1c0.1,0,0.1,0,0.3,0l6.9-2.5V189.9z M673.9,186.1l-5.8-2.5v-0.6c0,0-0.1-0.6-0.3-0.9l0,0l0,0l1.9-0.9
			c0.3-0.1,0.6-0.6,0.4-0.9l0,0c-0.1-0.3-0.6-0.6-0.9-0.3l-2.5,1l0,0v-0.1v-4.9l6.9,2.9c0.1,0,0.1,0,0.3,0.1v6.9H673.9z
			 M673.3,177.4l-5.9-2.5l6.2-2.2c0.3-0.1,0.6-0.1,0.7,0l5.5,2.5l-5.8,2.2C673.9,177.6,673.6,177.6,673.3,177.4z M681.1,183.2
			c0,0.4-0.3,0.7-0.6,0.9l-6.6,2.6v-8.1c0.1,0,0.1,0,0.3-0.1l6.9-2.7V183.2z"/>
	</g>
	<g id="App_Repo_5_">
		<circle class="st6" cx="154.3" cy="178.4" r="32"/>
		<g id="Layer_2_5_">
			<g id="Layer_1-2_17_">
				<g>
					<defs>
						<rect id="SVGID_128_" x="134.3" y="158.4" width="40" height="40"/>
					</defs>
					<clipPath id="SVGID_6_">
						<use xlink:href="#SVGID_128_"  style="overflow:visible;"/>
					</clipPath>
					<g class="st20">
						<g>
							<defs>
								<rect id="SVGID_130_" x="134.3" y="158.4" width="40" height="40"/>
							</defs>
							<clipPath id="SVGID_8_">
								<use xlink:href="#SVGID_130_"  style="overflow:visible;"/>
							</clipPath>
							<g class="st22">
								<path class="st21" d="M146.2,180.2c-0.1-0.3-0.1-0.7-0.2-1c0-0.1,0-0.1,0-0.2l0,0c-0.1-0.9,0-1.7,0.2-2.6l0,0
									c0,0,0-0.1,0-0.2c0,0,0-0.1,0-0.1c0,0,0-0.1,0-0.1c0,0,0-0.1,0-0.2s0,0,0,0c0.3-0.9,0.7-1.7,1.2-2.5l0,0l0.2-0.2l0.1-0.1
									l0.1-0.1c0.2-0.3,0.4-0.5,0.7-0.7c-1.7-3.3-1.6-7.3,0.2-10.6c-1.1,0.4-2.2,0.8-3.2,1.4l0,0l-0.1,0.1h-0.1l0,0
									c0,0-0.1,0-0.1,0h-0.1l-0.2,0.1l-0.2,0.1c-0.1,0-0.1,0.1-0.2,0.1l-0.1,0.1l-0.2,0.1l-0.1,0.1l-0.2,0.1l-0.2,0.2l-0.2,0.1
									l-0.1,0.1l-0.3,0.2L143,165l-0.2,0.1c-0.1,0-0.1,0.1-0.1,0.1l-0.1,0.1c0,0-0.1,0.1-0.1,0.1l-0.1,0.2l-0.1,0.1L142,166
									c0,0-0.1,0.1-0.1,0.1l-0.1,0.1c-0.1,0-0.1,0.1-0.2,0.1c0,0-0.1,0.1-0.1,0.1l-0.1,0.2l-0.1,0.2l-0.2,0.3c0,0-0.1,0.1-0.1,0.1
									c0,0-0.1,0.1-0.1,0.2c0,0-0.1,0.1-0.1,0.1c0,0.1-0.1,0.1-0.1,0.2c0,0-0.1,0.1-0.1,0.1l-0.1,0.2c0,0-0.1,0.1-0.1,0.1
									c0,0,0,0.1-0.1,0.1l-0.1,0.1l-0.1,0.1c0,0.1-0.1,0.1-0.1,0.2l-0.1,0.1l0,0l-0.1,0.2l-0.1,0.2c-0.1,0.1-0.1,0.2-0.2,0.4
									l-0.2,0.4l-0.1,0.1l-0.1,0.2c0,0,0,0.1-0.1,0.1c0,0.1-0.1,0.2-0.1,0.2c0,0.1,0,0.1-0.1,0.1l-0.1,0.3v0.2
									c0,0.1-0.1,0.2-0.1,0.2c0,0,0,0.1-0.1,0.1L138,172c0,0,0,0.1,0,0.1l-0.1,0.4l0,0c-0.1,0.1-0.1,0.2-0.1,0.4
									c0,0.1,0,0.1,0,0.1c-0.1,0,0,0.2-0.1,0.3s0,0.1-0.1,0.1l-0.1,0.2l0,0v0.1c0,0,0,0.1,0,0.1l-0.2,0.2l0,0c0,0,0,0.1,0,0.1
									l-0.1,0.6l0,0C139.1,178,142.5,180,146.2,180.2"/>
							</g>
						</g>
						<g>
							<defs>
								<rect id="SVGID_132_" x="134.3" y="158.4" width="40" height="40"/>
							</defs>
							<clipPath id="SVGID_10_">
								<use xlink:href="#SVGID_132_"  style="overflow:visible;"/>
							</clipPath>
							<g class="st24">
								<path class="st23" d="M151.9,186.3c-0.3-0.1-0.6-0.2-0.9-0.3l-0.2-0.1l0,0c-0.8-0.4-1.5-0.9-2.2-1.5l0,0l-0.1-0.1l-0.1-0.1
									l-0.1-0.1l-0.1-0.1l0,0c-0.6-0.7-1.1-1.5-1.5-2.3l0,0l-0.1-0.2l-0.1-0.1c0,0,0-0.1,0-0.1c-0.1-0.3-0.2-0.6-0.3-1
									c-3.7-0.2-7.2-2.2-9.1-5.4c-0.2,1.1-0.4,2.3-0.4,3.5v0.4l0,0v0.2c0,0.1,0,0.1,0,0.2s0,0.1,0,0.2s0,0.1,0,0.2
									c0,0.1,0,0.1,0,0.2c0,0.1,0,0.1,0,0.2c0,0.1,0,0.1,0,0.2c0,0.1,0,0.1,0,0.2c0,0.1,0,0.1,0,0.2v0.2c0,0,0,0.1,0,0.2l0.1,0.4
									v0.2c0,0.1,0,0.1,0,0.2c0,0.1,0,0.1,0,0.2c0,0.1,0,0.1,0,0.2c0,0.1,0,0.1,0,0.2s0,0.1,0.1,0.2s0,0.1,0,0.2
									c0,0.1,0,0.1,0,0.2c0,0.1,0,0.1,0.1,0.2c0,0.1,0,0.1,0,0.2c0,0.1,0,0.1,0.1,0.2c0,0.1,0,0.1,0,0.2l0.1,0.2
									c0,0.1,0,0.1,0.1,0.2c0,0.1,0.1,0.2,0.1,0.3l0.1,0.2c0,0.1,0,0.1,0.1,0.2c0,0.1,0,0.1,0.1,0.2c0,0.1,0,0.1,0.1,0.2l0.1,0.2
									c0,0.1,0.1,0.1,0.1,0.2l0.1,0.2v0.1l0.1,0.2l0.1,0.2c0,0.1,0.1,0.2,0.1,0.2l0.1,0.1c0,0,0,0,0,0.1l0.1,0.2
									c0,0,0,0.1,0.1,0.1l0.2,0.4c0.1,0.1,0.1,0.2,0.2,0.4c0,0,0,0.1,0.1,0.1l0.2,0.2l0.1,0.1l0.1,0.2l0.1,0.1
									c0,0.1,0.1,0.1,0.1,0.2l0.1,0.1l0.7,0.2l0.1,0.1l0.2,0.2l0.1,0.1c0.1,0.1,0.2,0.2,0.3,0.3l0,0l0.2,0.3l0.1,0.1l0.2,0.2
									l0.1,0.1l0.1,0.1l0,0l0.1,0.1l0.1,0.1l0.2,0.2l0,0l0.1,0.1c0.1,0.1,0.3,0.3,0.5,0.4l0,0
									C146.4,191.3,149.9,189.4,151.9,186.3"/>
							</g>
						</g>
						<g>
							<defs>
								<rect id="SVGID_134_" x="134.3" y="158.4" width="40" height="40"/>
							</defs>
							<clipPath id="SVGID_12_">
								<use xlink:href="#SVGID_134_"  style="overflow:visible;"/>
							</clipPath>
							<g class="st26">
								<path class="st25" d="M160,184.4c-0.2,0.2-0.5,0.4-0.8,0.6l-0.1,0.1l0,0c-0.7,0.5-1.5,0.9-2.3,1.1l0,0h-0.2h-0.1l-0.2,0.1
									h-0.2l0,0c-0.9,0.2-1.8,0.3-2.8,0.2h-0.1h-0.2h-0.1h-0.1c-0.3-0.1-0.6-0.1-1-0.2c-2,3.1-5.5,5-9.2,5.1
									c0.9,0.8,1.8,1.5,2.8,2.1l0,0l0.3,0.2h0.1l0,0h0.1h0.1l0.2,0.1c0.1,0,0.1,0.1,0.2,0.1l0.2,0.1l0.2,0.1l0.2,0.1l0.2,0.1
									l0.3,0.2l0.2,0.1l0.2,0.1l0.2,0.1l0.3,0.1l0.2,0.1l0.2,0.1l0.2,0.1l0.2,0.1l0.2,0.1l0.2,0.1h0.2h0.2l0.2,0.1h0.2h0.2h0.2
									l0.2,0.1h0.2l0.4,0.1h0.2h0.2h0.2h0.2h0.2h0.2h0.2h0.3h0.2h2.6h0.2h0.2h0.2h0.2h0.1h0.3h0.1l0.4-0.1l0,0l0.4-0.1h0.1
									c0.1,0,0.2,0,0.3-0.1l0.1,0.3h0.2l0,0h0.1h0.1l0.2-0.1l0,0h0.1l0.6-0.2l0,0C161.6,191.8,161.7,187.8,160,184.4"/>
							</g>
						</g>
						<g>
							<defs>
								<rect id="SVGID_136_" x="134.3" y="158.4" width="40" height="40"/>
							</defs>
							<clipPath id="SVGID_14_">
								<use xlink:href="#SVGID_136_"  style="overflow:visible;"/>
							</clipPath>
							<g class="st28">
								<path class="st27" d="M162.3,176.4c0.1,0.3,0.1,0.7,0.2,1c0,0.1,0,0.1,0,0.2l0,0c0.1,0.9,0,1.7-0.2,2.6l0,0
									c0,0.1,0,0.1,0,0.2c0,0,0,0.1,0,0.1c0,0,0,0.1,0,0.1c0,0.1,0,0.1,0,0.2l0,0c-0.3,0.9-0.7,1.7-1.2,2.5l0,0l-0.2,0.2l-0.1,0.1
									l-0.1,0.1c-0.2,0.3-0.4,0.5-0.7,0.7c1.7,3.3,1.6,7.3-0.2,10.6c1.1-0.4,2.2-0.8,3.2-1.4l0,0l0.3-0.2h0.1l0,0c0,0,0.1,0,0.1,0
									l0.1-0.1l0.2-0.1l0.2-0.1l0.2-0.1l0.2-0.1l0.2-0.1l0.1-0.1l0.2-0.1l0.1-0.1l0.2-0.1l0.1-0.1l0.3-0.2l0.1-0.1l0.2-0.1
									c0,0,0.1-0.1,0.1-0.1l0.2-0.1l0.1-0.1c0,0,0.1-0.1,0.1-0.1l0.1-0.1l0.1-0.1l0.2-0.2l0.1-0.1l0.1-0.1l0.1-0.1l0.1-0.1
									l0.2-0.2l0.2-0.3c0,0,0.1-0.1,0.1-0.1l0.1-0.2c0,0,0.1-0.1,0.1-0.1c0-0.1,0.1-0.1,0.1-0.2c0,0,0.1-0.1,0.1-0.1l0.1-0.2
									l0.1-0.1c0,0,0-0.1,0.1-0.1l0.1-0.1l0.1-0.1c0-0.1,0.1-0.2,0.1-0.2l0.1-0.1v-0.1l0.1-0.2v-0.2c0.1-0.1,0.1-0.2,0.2-0.4
									l0.2-0.4c0,0,0-0.1,0.1-0.1l0.1-0.2c0-0.1,0-0.1,0.1-0.1c0-0.1,0.1-0.2,0.1-0.2c0-0.1,0-0.1,0.1-0.2c0-0.1,0.1-0.1,0.1-0.2
									l0.1-0.1l0.1-0.2c0,0,0-0.1,0.1-0.1l0.1-0.3v-0.1c0-0.1,0.1-0.3,0.1-0.4l0,0c0-0.1,0.1-0.2,0.1-0.4c0-0.1,0-0.1,0-0.1
									s0-0.2,0.1-0.3c0-0.1,0-0.1,0-0.2l0.1-0.2c0,0,0,0,0-0.1v-0.1c0,0,0-0.1,0-0.1l0.1-0.2l0,0c0,0,0-0.1,0-0.1l0.1-0.6l0,0
									C169.3,178.7,166,176.7,162.3,176.4"/>
							</g>
						</g>
						<g>
							<defs>
								<rect id="SVGID_138_" x="134.3" y="158.4" width="40" height="40"/>
							</defs>
							<clipPath id="SVGID_16_">
								<use xlink:href="#SVGID_138_"  style="overflow:visible;"/>
							</clipPath>
							<g class="st30">
								<path class="st29" d="M156.7,170.4c0.3,0.1,0.6,0.2,0.9,0.3l0.2,0.1l0,0c0.8,0.4,1.5,0.9,2.1,1.4l0,0l0.1,0.1
									c0,0,0,0,0.1,0.1l0.1,0.1l0.1,0.1l0,0c0.6,0.7,1.1,1.5,1.5,2.3c0,0,0,0,0,0.1l0.1,0.2v0.1c0,0,0,0.1,0,0.1
									c0.1,0.3,0.2,0.6,0.3,1c3.7,0.2,7.2,2.2,9.1,5.5c0.2-1.1,0.4-2.3,0.4-3.5V178l0,0v-0.2c0-0.1,0-0.1,0-0.2s0-0.1,0-0.2
									s0-0.1,0-0.2c0-0.1,0-0.1,0-0.2c0-0.1,0-0.1,0-0.2c0-0.1,0-0.1,0-0.2c0-0.1,0-0.1,0-0.2c0-0.1,0-0.1,0-0.2V176
									c0-0.1,0-0.1,0-0.2l-0.1-0.4v-0.2c0-0.1,0-0.2,0-0.2c0-0.1,0-0.1,0-0.2s0-0.1,0-0.2c0-0.1,0-0.1,0-0.2c0-0.1,0-0.1-0.1-0.2
									v-0.2c0-0.1,0-0.1-0.1-0.2c0-0.1,0-0.1,0-0.2c0-0.1,0-0.1,0-0.2c0-0.1,0-0.1-0.1-0.2c0-0.1,0-0.1,0-0.2l-0.1-0.2
									c0-0.1,0-0.1-0.1-0.2l-0.1-0.3l-0.1-0.2c0-0.1,0-0.1-0.1-0.2c0-0.1,0-0.1-0.1-0.2c0-0.1,0-0.1-0.1-0.2l-0.1-0.2
									c0-0.1,0-0.1-0.1-0.2l-0.4-0.1v-0.1l-0.1-0.2l-0.1-0.2c0-0.1-0.1-0.2-0.1-0.2l-0.1-0.1v0l-0.1-0.2c0,0,0-0.1-0.1-0.1
									l-0.2-0.4c-0.1-0.1-0.1-0.2-0.2-0.4c0,0,0-0.1-0.1-0.1l-0.1-0.2l-0.1-0.1l-0.1-0.2l-0.1-0.1l-0.1-0.2l-0.1-0.1l-0.2-0.2
									l-0.1-0.1l-0.2-0.2l-0.1-0.1c-0.1-0.1-0.2-0.2-0.3-0.3l0,0l-0.2-0.3l-0.1-0.2l-0.2-0.2l-0.1-0.1c0-0.1-0.1-0.1-0.2-0.1l0,0
									l-0.1-0.1l-0.1-0.1l-0.2-0.2l0,0l-0.1-0.1c-0.1-0.1-0.3-0.3-0.5-0.4l0,0C162.2,165.3,158.7,167.2,156.7,170.4"/>
							</g>
						</g>
						<g>
							<defs>
								<rect id="SVGID_140_" x="134.3" y="158.4" width="40" height="40"/>
							</defs>
							<clipPath id="SVGID_17_">
								<use xlink:href="#SVGID_140_"  style="overflow:visible;"/>
							</clipPath>
							<g style="clip-path:url(#SVGID_17_);">
								<path class="st31" d="M148.6,172.4c0.2-0.2,0.5-0.4,0.8-0.6l0.1-0.1l0,0c0.7-0.5,1.5-0.9,2.3-1.1l0,0h0.2h0.1h0.1h0.2l0,0
									c0.9-0.2,1.8-0.3,2.8-0.2h0h0.2h0.1h0.1c0.3,0.1,0.7,0.1,1,0.2c2-3.2,5.5-5.2,9.3-5.3c-0.9-0.8-1.8-1.5-2.8-2.1l0,0
									l-0.3-0.1h-0.1l0,0h-0.1h-0.1l-0.2-0.1l-0.2-0.1l-0.2-0.1l-0.2-0.1l-0.2-0.1l-0.2-0.1l-0.2-0.2l-0.2-0.1l-0.2-0.1l-0.2-0.1
									l-0.4-0.1l-0.2-0.1l-0.2-0.1l-0.2-0.1l-0.2-0.1l-0.2-0.1l-0.2-0.1l-0.2-0.1h-0.2l-0.2-0.1h-0.2l-0.2-0.1h-0.2h-0.2l-0.2,0
									l-0.4-0.1h-0.2H157c-0.1,0-0.1,0-0.2,0h-0.2h-0.2h-0.2h-0.7h-0.3h-2H153h-0.2h-0.2h-0.2h-0.2h-0.1h-0.3h-0.1l-0.4,0.1l0,0
									l-0.4,0.1h-0.1l-0.4,0h-0.2H150l0,0h-0.1h-0.1l-0.2,0.1l0,0h-0.1l-0.6,0.2l0,0C146.9,164.9,146.8,169,148.6,172.4"/>
							</g>
						</g>
					</g>
				</g>
			</g>
		</g>
	</g>
	<g id="Issue_Tracker_15_">
		<circle class="st6" cx="37.5" cy="178.4" r="32"/>
		<g id="Layer_2_4_">
			<g id="Layer_1-2_5_">
				<g>
					<defs>
						<rect id="SVGID_142_" x="17.5" y="158.4" width="40" height="40"/>
					</defs>
					<clipPath id="SVGID_18_">
						<use xlink:href="#SVGID_142_"  style="overflow:visible;"/>
					</clipPath>
					<g style="clip-path:url(#SVGID_18_);">
						<g>
							<defs>
								<rect id="SVGID_144_" x="17.5" y="158.4" width="40" height="40"/>
							</defs>
							<clipPath id="SVGID_19_">
								<use xlink:href="#SVGID_144_"  style="overflow:visible;"/>
							</clipPath>
							<g style="clip-path:url(#SVGID_19_);">
								<path class="st21" d="M29.4,180.2c-0.1-0.3-0.1-0.7-0.2-1c0-0.1,0-0.1,0-0.2l0,0c-0.1-0.9,0-1.7,0.2-2.6l0,0
									c0,0,0-0.1,0-0.2c0,0,0-0.1,0-0.1c0,0,0-0.1,0-0.1c0,0,0-0.1,0-0.2s0,0,0,0c0.3-0.9,0.7-1.7,1.2-2.5l0,0l0.1-0.2l0.1-0.1
									l0.1-0.1c0.2-0.3,0.4-0.5,0.7-0.7c-1.7-3.3-1.6-7.3,0.2-10.6c-1.1,0.4-2.2,0.8-3.2,1.4l0,0l-0.1,0.1h-0.1l0,0c0,0,0,0-0.1,0
									h-0.1l-0.2,0.1l-0.1,0.1c-0.1,0-0.1,0.1-0.2,0.1l-0.1,0.1l-0.2,0.1l-0.1,0.1l-0.2,0.1l-0.2,0.2l-0.2,0.1l-0.1,0.1l-0.3,0.2
									l-0.1,0.1l-0.2,0.1c-0.1,0-0.1,0.1-0.1,0.1l-0.1,0.1c0,0-0.1,0.1-0.1,0.1l-0.1,0.2l-0.1,0.1l-0.1,0.1c0,0-0.1,0.1-0.1,0.1
									l-0.1,0.1c-0.1,0-0.1,0.1-0.2,0.1c0,0-0.1,0.1-0.1,0.1l-0.1,0.2l-0.1,0.2l-0.2,0.3c0,0-0.1,0.1-0.1,0.1c0,0-0.1,0.1-0.1,0.2
									c0,0-0.1,0.1-0.1,0.1c0,0.1-0.1,0.1-0.1,0.2c0,0-0.1,0.1-0.1,0.1l-0.1,0.2c0,0-0.1,0.1-0.1,0.1c0,0,0,0.1-0.1,0.1l-0.1,0.1
									l-0.1,0.1c0,0.1-0.1,0.1-0.1,0.2l-0.1,0.1l0,0l-0.1,0.2l-0.1,0.2c-0.1,0.1-0.1,0.2-0.2,0.4l-0.2,0.4l-0.1,0.1l-0.1,0.2
									c0,0,0,0.1-0.1,0.1c0,0.1-0.1,0.2-0.1,0.2c0,0.1,0,0.1-0.1,0.1l-0.1,0.3v0.2c0,0.1-0.1,0.2-0.1,0.2c0,0,0,0.1-0.1,0.1
									l-0.1,0.3c0,0,0,0.1,0,0.1l-0.1,0.4l0,0c0,0.1-0.1,0.2-0.1,0.4c0,0.1,0,0.1-0.1,0.1c0,0,0,0.2-0.1,0.3s0,0.1,0,0.1l-0.1,0.2
									l0,0v0.1c0,0,0,0.1,0,0.1l-0.2,0.2l0,0c0,0,0,0.1,0,0.1l-0.1,0.6l0,0C22.3,178,25.7,180,29.4,180.2"/>
							</g>
						</g>
						<g>
							<defs>
								<rect id="SVGID_146_" x="17.5" y="158.4" width="40" height="40"/>
							</defs>
							<clipPath id="SVGID_20_">
								<use xlink:href="#SVGID_146_"  style="overflow:visible;"/>
							</clipPath>
							<g style="clip-path:url(#SVGID_20_);">
								<path class="st23" d="M35.1,186.3c-0.3-0.1-0.6-0.2-0.9-0.3l-0.2-0.1l0,0c-0.8-0.4-1.5-0.9-2.2-1.5l0,0l-0.1-0.1l-0.1-0.1
									l-0.1-0.1l-0.1-0.1l0,0c-0.6-0.7-1.1-1.5-1.5-2.3l0,0l-0.1-0.2l-0.1-0.1c0,0,0-0.1,0-0.1c-0.1-0.3-0.2-0.6-0.3-1
									c-3.7-0.2-7.2-2.2-9.1-5.4c-0.2,1.1-0.4,2.3-0.4,3.5v0.4l0,0v0.2c0,0.1,0,0.1,0,0.2s0,0.1,0,0.2s0,0.1,0,0.2
									c0,0.1,0,0.1,0,0.2c0,0.1,0,0.1,0,0.2c0,0.1,0,0.1,0,0.2c0,0.1,0,0.1,0,0.2c0,0.1,0,0.1,0,0.2v0.2c0,0,0,0.1,0,0.2l0.1,0.4
									v0.2c0,0.1,0,0.1,0,0.2c0,0.1,0,0.1,0,0.2c0,0.1,0,0.1,0,0.2c0,0.1,0,0.1,0,0.2s0,0.1,0.1,0.2c0,0.1,0,0.1,0,0.2
									c0,0.1,0,0.1,0,0.2c0,0.1,0,0.1,0,0.2c0,0.1,0,0.1,0,0.2c0,0.1,0,0.1,0.1,0.2c0,0.1,0,0.1,0,0.2l0.1,0.2
									c0,0.1,0,0.1,0.1,0.2c0,0.1,0.1,0.2,0.1,0.3l0.1,0.2c0,0.1,0,0.1,0.1,0.2c0,0.1,0,0.1,0.1,0.2c0,0.1,0,0.1,0.1,0.2l0.1,0.2
									c0,0.1,0.1,0.1,0.1,0.2l0.1,0.2v0.1l0.1,0.2l0.1,0.2c0,0.1,0.1,0.2,0.1,0.2l0.1,0.1c0,0,0,0,0,0.1l0.1,0.2
									c0,0,0,0.1,0.1,0.1l0.2,0.4c0.1,0.1,0.1,0.2,0.2,0.4c0,0,0,0.1,0.1,0.1l0.1,0.2l0.1,0.1l0.1,0.2l0.1,0.1
									c0,0.1,0.1,0.1,0.1,0.2l0.1,0.1l0.7,0.2l0.1,0.1l0.2,0.2l0.1,0.1c0.1,0.1,0.2,0.2,0.3,0.3l0,0l0.2,0.3l0.2,0.1l0.2,0.2
									l0.1,0.1l0.2,0.1l0,0l0.1,0.1l0.1,0.1l0.2,0.2l0,0l0.1,0.1c0.1,0.1,0.3,0.3,0.5,0.4l0,0C29.6,191.3,33.1,189.4,35.1,186.3"
									/>
							</g>
						</g>
						<g>
							<defs>
								<rect id="SVGID_148_" x="17.5" y="158.4" width="40" height="40"/>
							</defs>
							<clipPath id="SVGID_22_">
								<use xlink:href="#SVGID_148_"  style="overflow:visible;"/>
							</clipPath>
							<g class="st48">
								<path class="st25" d="M43.2,184.4c-0.2,0.2-0.5,0.4-0.8,0.6l-0.2,0.1l0,0c-0.7,0.5-1.5,0.9-2.3,1.1l0,0h-0.2h-0.1l-0.2,0.1
									h-0.2l0,0c-0.9,0.2-1.8,0.3-2.8,0.2h-0.1h-0.2h-0.1H36c-0.3-0.1-0.7-0.1-1-0.2c-2,3.1-5.5,5-9.2,5.1
									c0.9,0.8,1.8,1.5,2.8,2.1l0,0l0.3,0.2H29l0,0h0.1h0.1l0.2,0.1c0.1,0,0.1,0.1,0.2,0.1l0.2,0.1l0.2,0.1L30,194l0.2,0.1
									l0.3,0.2l0.2,0.1l0.2,0.1l0.2,0.1l0.4,0.1l0.2,0.1l0.2,0.1l0.2,0.1l0.2,0.1l0.2,0.1l0.2,0.1h0.2h0.2l0.2,0.1h0.2h0.2h0.2
									l0.2,0.1h0.2l0.4,0.1h0.2h0.2H35h0.2h0.2h0.2h0.2H36h0.2h2.6h0.2h0.2h0.2h0.2h0.1H40h0.1l0.4-0.1l0,0l0.4-0.1h0.1
									c0.1,0,0.2,0,0.3-0.1l0.1,0.3h0.2l0,0h0.1h0.1l0.2-0.1l0,0h0.1l0.6-0.2l0,0C44.8,191.8,44.9,187.8,43.2,184.4"/>
							</g>
						</g>
						<g>
							<defs>
								<rect id="SVGID_150_" x="17.5" y="158.4" width="40" height="40"/>
							</defs>
							<clipPath id="SVGID_24_">
								<use xlink:href="#SVGID_150_"  style="overflow:visible;"/>
							</clipPath>
							<g class="st49">
								<path class="st27" d="M45.5,176.4c0.1,0.3,0.1,0.7,0.2,1c0,0.1,0,0.1,0,0.2l0,0c0.1,0.9,0,1.7-0.2,2.6l0,0
									c0,0.1,0,0.1,0,0.2c0,0,0,0.1,0,0.1c0,0,0,0.1,0,0.1c0,0.1,0,0.1,0,0.2l0,0c-0.3,0.9-0.7,1.7-1.2,2.5l0,0l-0.1,0.2l-0.1,0.1
									l-0.1,0.1c-0.2,0.3-0.4,0.5-0.7,0.7c1.7,3.3,1.6,7.3-0.2,10.6c1.1-0.4,2.2-0.8,3.2-1.4l0,0l0.3-0.2h0.1l0,0c0,0,0,0,0.1,0
									l0.1-0.1l0.2-0.1l0.1-0.1l0.2-0.1l0.2-0.1l0.2-0.1l0.2-0.1l0.2-0.1l0.1-0.1l0.2-0.1l0.1-0.1l0.3-0.2l0.1-0.1l0.2-0.1
									c0,0,0.1-0.1,0.1-0.1l0.2-0.1l0.1-0.1c0,0,0.1-0.1,0.2-0.1l0.1-0.1l0.1-0.1l0.2-0.2l0.1-0.1l0.1-0.1l0.1-0.1l0.1-0.1
									l0.2-0.2l0.2-0.3c0,0,0.1-0.1,0.1-0.1l0.1-0.2c0,0,0.1-0.1,0.1-0.1c0-0.1,0.1-0.1,0.1-0.2c0,0,0.1-0.1,0.1-0.1l0.1-0.2
									l0.1-0.1c0,0,0-0.1,0.1-0.1l0.1-0.1l0.1-0.1c0-0.1,0.1-0.2,0.1-0.2l0.1-0.1v-0.1l0.1-0.2l0-0.2c0.1-0.1,0.2-0.2,0.2-0.4
									l0.2-0.4c0,0,0-0.1,0.1-0.1l0.1-0.2c0-0.1,0-0.1,0.1-0.1c0-0.1,0.1-0.2,0.1-0.2c0-0.1,0-0.1,0.1-0.2c0-0.1,0.1-0.1,0.1-0.2
									l0.1-0.1l0.1-0.2c0,0,0-0.1,0.1-0.1l0.1-0.3v-0.1c0-0.1,0.1-0.3,0.1-0.4l0,0c0-0.1,0.1-0.2,0.1-0.4c0-0.1,0-0.1,0-0.1
									s0-0.2,0.1-0.3s0-0.1,0-0.2l0.1-0.2c0,0,0,0,0-0.1v-0.1c0,0,0-0.1,0-0.1l0.1-0.2l0,0c0,0,0-0.1,0-0.1l0.2-0.6l0,0
									C52.5,178.7,49.2,176.7,45.5,176.4"/>
							</g>
						</g>
						<g>
							<defs>
								<rect id="SVGID_152_" x="17.5" y="158.4" width="40" height="40"/>
							</defs>
							<clipPath id="SVGID_26_">
								<use xlink:href="#SVGID_152_"  style="overflow:visible;"/>
							</clipPath>
							<g class="st50">
								<path class="st29" d="M39.9,170.4c0.3,0.1,0.6,0.2,0.9,0.3l0.2,0.1l0,0c0.8,0.4,1.5,0.9,2.1,1.4l0,0l0.1,0.1
									c0,0,0,0,0.1,0.1l0.1,0.1l0.1,0.1l0,0c0.6,0.7,1.1,1.5,1.5,2.3c0,0,0,0,0,0.1l0.1,0.2v0.1c0,0,0,0.1,0,0.1
									c0.1,0.3,0.2,0.6,0.3,1c3.7,0.2,7.2,2.2,9.1,5.5c0.2-1.1,0.4-2.3,0.4-3.5V178l0,0v-0.2c0-0.1,0-0.1,0-0.2s0-0.1,0-0.2
									s0-0.1,0-0.2c0-0.1,0-0.1,0-0.2c0-0.1,0-0.1,0-0.2c0-0.1,0-0.1,0-0.2c0-0.1,0-0.1,0-0.2c0-0.1,0-0.1,0-0.2V176
									c0-0.1,0-0.1,0-0.2l-0.1-0.4v-0.2c0-0.1,0-0.2,0-0.2c0-0.1,0-0.1,0-0.2s0-0.1,0-0.2c0-0.1,0-0.1,0-0.2c0-0.1,0-0.1,0-0.2
									v-0.2c0-0.1,0-0.1,0-0.2c0-0.1,0-0.1,0-0.2c0-0.1,0-0.1,0-0.2c0-0.1,0-0.1,0-0.2c0-0.1,0-0.1,0-0.2l-0.1-0.2
									c0-0.1,0-0.1-0.1-0.2l-0.1-0.3l-0.1-0.2c0-0.1,0-0.1-0.1-0.2c0-0.1,0-0.1-0.1-0.2c0-0.1,0-0.1-0.1-0.2l-0.1-0.2
									c0-0.1,0-0.1-0.1-0.2l-0.4-0.1v-0.1l-0.1-0.2l-0.1-0.2c0-0.1-0.1-0.2-0.1-0.2l-0.1-0.1v0l-0.1-0.2c0,0,0-0.1-0.1-0.1
									l-0.2-0.4c-0.1-0.1-0.1-0.2-0.2-0.4c0,0,0-0.1-0.1-0.1l-0.2-0.2l-0.1-0.1l-0.2-0.2l-0.1-0.1l-0.1-0.2l-0.1-0.1l-0.2-0.2
									l-0.1-0.1l-0.2-0.2l-0.1-0.1c-0.1-0.1-0.2-0.2-0.3-0.3l0,0l-0.2-0.3l-0.1-0.2l-0.2-0.2l-0.1-0.1c0-0.1-0.1-0.1-0.2-0.1l0,0
									l-0.1-0.1l-0.1-0.1l-0.2-0.2l0,0l-0.1-0.1c-0.2-0.1-0.3-0.3-0.5-0.4l0,0C45.4,165.3,41.9,167.2,39.9,170.4"/>
							</g>
						</g>
						<g>
							<defs>
								<rect id="SVGID_154_" x="17.5" y="158.4" width="40" height="40"/>
							</defs>
							<clipPath id="SVGID_28_">
								<use xlink:href="#SVGID_154_"  style="overflow:visible;"/>
							</clipPath>
							<g class="st51">
								<path class="st31" d="M31.8,172.4c0.2-0.2,0.5-0.4,0.8-0.6l0.1-0.1l0,0c0.7-0.5,1.5-0.9,2.3-1.1l0,0h0.2h0.1h0.1h0.2l0,0
									c0.9-0.2,1.8-0.3,2.8-0.2h0h0.2h0.1h0.1c0.3,0.1,0.7,0.1,1,0.2c2-3.2,5.5-5.2,9.3-5.3c-0.9-0.8-1.8-1.5-2.8-2.1l0,0
									l-0.3-0.1h-0.1l0,0h-0.1h-0.1l-0.2-0.1l-0.2-0.1l-0.2-0.1l-0.2-0.1l-0.2-0.1l-0.2-0.1l-0.2-0.2l-0.2-0.1l-0.2-0.1l-0.2-0.1
									l-0.3-0.1l-0.2-0.1l-0.2-0.1l-0.2-0.1l-0.2-0.1l-0.2-0.1l-0.2-0.1l-0.2-0.1h-0.2l-0.2-0.1h-0.2l-0.2-0.1h-0.2h-0.2l-0.2,0
									l-0.4-0.1h-0.2h-0.2c-0.1,0-0.1,0-0.2,0h-0.2h-0.2h-0.2h-0.7h-0.3h-2h-0.3h-0.2h-0.2h-0.2h-0.2h-0.1H35h-0.1l-0.4,0.1l0,0
									l-0.4,0.1h-0.1l-0.4,0h-0.2h-0.2l0,0h-0.1H33l-0.2,0.1l0,0h-0.1l-0.6,0.2l0,0C30.1,164.9,30,169,31.8,172.4"/>
							</g>
						</g>
					</g>
				</g>
			</g>
		</g>
	</g>
	<g id="PR_Pipeline_8_">
		<circle class="st6" cx="153.8" cy="32.5" r="32"/>
		<g id="CI_x5F_CD_x5F_icon_15_">
			<g id="e18fe981-7760-4f0f-92d6-295e583f5df5_15_">
				<g>
					<path class="st104" d="M166.8,34.7c-1.5,6.3-6.8,10.9-13.4,10.9c-4.1,0.1-8-1.8-10.4-5.2l7.2-7.4l0.8,0.8l-0.8-0.8l0,0l1.1,1.3
						l1.7-5.9l-5.8,1.7l1.1,1.1l-1.7,2l-4.9,5c-1-1.7-1.6-3.5-1.7-5.4l-2.1-3.1c-0.1,0.7-0.2,1.5-0.1,2.2c0,8.9,7.3,16.3,16.1,16.3
						c6.9-0.1,13-4.4,15.2-10.9L166.8,34.7z"/>
					<polyline class="st105" points="141.5,38.1 148.2,31.2 147.2,30 153,28.4 143,38.3 					"/>
				</g>
				<g>
					<path class="st105" d="M152.9,47.9c6.9-0.1,13-4.4,15.2-10.9l-1.1-1.3c-1.9,7.8-9.8,12.5-17.6,10.6
						c-6.7-1.6-11.3-7.7-11.1-14.5v-0.7l-0.8-1.5c-0.1,0.7-0.2,1.5-0.1,2.2c-0.3,8.6,6.6,15.8,15.2,16.1
						C152.7,47.9,152.8,47.9,152.9,47.9z"/>
					<line class="st10" x1="141.5" y1="38.3" x2="143" y2="38.8"/>
				</g>
			</g>
			<g id="b4a44eff-a6ab-4c1f-a314-3899682236f1_15_">
				<g>
					<path class="st106" d="M140.3,29.5c1.5-6.3,6.8-10.9,13.4-10.9c4.1-0.1,8,1.8,10.4,5.2l-7.2,7.4l-0.6-0.8l0.8,0.8l0,0l-1.3-1.3
						l-1.7,5.9l5.8-1.7l-1.1-1.1l2-2l4.9-5c0.8,1.7,1.4,3.6,1.5,5.4l2.1,3.1c0.1-0.6,0.2-1.3,0.1-2c0-8.9-7.2-16.3-16.1-16.3
						c-6.8,0.1-12.8,4.5-14.9,10.9L140.3,29.5z"/>
					<polyline class="st107" points="164.3,23.8 156.9,31.2 156,29.9 154.3,35.8 164,25.7 					"/>
				</g>
				<g>
					<path class="st107" d="M153.7,16.2c-6.9,0.1-13,4.4-15.2,10.9l1.1,1.3c1.9-7.8,9.8-12.5,17.6-10.6c6.7,1.6,11.3,7.7,11.1,14.5
						V33l1.1,1.5c0.1-0.6,0.2-1.3,0.1-2C169.4,23.3,162.4,16.2,153.7,16.2z"/>
					<line class="st10" x1="165.7" y1="25.7" x2="164.3" y2="25.3"/>
				</g>
			</g>
		</g>
	</g>
	<g id="App_Repo_4_">
		<circle class="st6" cx="410.3" cy="179.5" r="32"/>
		<g id="Layer_2_3_">
			<g id="Layer_1-2_4_">
				<g>
					<defs>
						<rect id="SVGID_173_" x="390.3" y="159.5" width="40" height="40"/>
					</defs>
					<clipPath id="SVGID_30_">
						<use xlink:href="#SVGID_173_"  style="overflow:visible;"/>
					</clipPath>
					<g class="st52">
						<g>
							<defs>
								<rect id="SVGID_175_" x="390.3" y="159.5" width="40" height="40"/>
							</defs>
							<clipPath id="SVGID_32_">
								<use xlink:href="#SVGID_175_"  style="overflow:visible;"/>
							</clipPath>
							<g class="st53">
								<path class="st21" d="M402.1,181.4c-0.1-0.3-0.1-0.7-0.2-1c0-0.1,0-0.1,0-0.2l0,0c-0.1-0.9,0-1.7,0.2-2.6l0,0
									c0,0,0-0.1,0-0.2c0,0,0-0.1,0-0.1c0,0,0-0.1,0-0.1c0,0,0-0.1,0-0.2c0-0.1,0,0,0,0c0.3-0.9,0.7-1.7,1.2-2.5l0,0l0.2-0.2
									l0.1-0.1l0.1-0.1c0.2-0.3,0.4-0.5,0.7-0.7c-1.7-3.3-1.6-7.3,0.2-10.6c-1.1,0.4-2.2,0.8-3.2,1.4l0,0l-0.1,0.1h-0.1l0,0
									c0,0,0,0-0.1,0H401l-0.2,0.1l-0.2,0.1c-0.1,0-0.1,0.1-0.2,0.1l-0.1,0.1l-0.2,0.1l-0.1,0.1l-0.2,0.1l-0.2,0.2l-0.2,0.1
									l-0.1,0.1l-0.3,0.2l-0.1,0.1l-0.2,0.1c-0.1,0-0.1,0.1-0.1,0.1l-0.1,0.1c0,0-0.1,0.1-0.1,0.1l-0.1,0.2l-0.1,0.1l-0.1,0.1
									c0,0-0.1,0.1-0.1,0.1l-0.1,0.1c-0.1,0-0.1,0.1-0.2,0.1c0,0-0.1,0.1-0.1,0.1l-0.1,0.2l-0.1,0.2l-0.2,0.3c0,0-0.1,0.1-0.1,0.1
									c0,0-0.1,0.1-0.1,0.2c0,0-0.1,0.1-0.1,0.1c0,0.1-0.1,0.1-0.1,0.2c0,0-0.1,0.1-0.1,0.1l-0.1,0.2c0,0-0.1,0.1-0.1,0.1
									c0,0,0,0.1-0.1,0.1l-0.1,0.2l-0.1,0.1c0,0.1-0.1,0.1-0.1,0.2l-0.1,0.1l0,0l-0.1,0.2l-0.1,0.2c-0.1,0.1-0.1,0.2-0.2,0.4
									l-0.2,0.4l-0.1,0.1l-0.1,0.2c0,0,0,0.1-0.1,0.1c0,0.1-0.1,0.2-0.1,0.2c0,0.1,0,0.1-0.1,0.1l-0.1,0.3v0.2
									c0,0.1-0.1,0.2-0.1,0.2c0,0,0,0.1-0.1,0.1l-0.1,0.3c0,0,0,0.1,0,0.1l-0.1,0.4l0,0c-0.1,0.1-0.1,0.2-0.1,0.4
									c0,0.1,0,0.1,0,0.1c0,0,0,0.2-0.1,0.3c-0.1,0.1,0,0.1-0.1,0.1l-0.1,0.2l0,0v0.1c0,0,0,0.1,0,0.1l-0.2,0.2l0,0
									c0,0,0,0.1,0,0.1l-0.1,0.6l0,0C395.1,179.1,398.5,181.1,402.1,181.4"/>
							</g>
						</g>
						<g>
							<defs>
								<rect id="SVGID_177_" x="390.3" y="159.5" width="40" height="40"/>
							</defs>
							<clipPath id="SVGID_34_">
								<use xlink:href="#SVGID_177_"  style="overflow:visible;"/>
							</clipPath>
							<g class="st54">
								<path class="st23" d="M407.9,187.4c-0.3-0.1-0.6-0.2-0.9-0.3l-0.2-0.1l0,0c-0.8-0.4-1.5-0.9-2.2-1.5l0,0l-0.1-0.1l-0.1-0.1
									l-0.1-0.1l-0.1-0.1l0,0c-0.6-0.7-1.1-1.5-1.5-2.3l0,0l-0.1-0.2l-0.1-0.1c0,0,0-0.1,0-0.1c-0.1-0.3-0.2-0.6-0.3-1
									c-3.7-0.2-7.2-2.2-9.1-5.4c-0.2,1.1-0.4,2.3-0.4,3.5v0.4l0,0v0.2c0,0.1,0,0.1,0,0.2s0,0.1,0,0.2c0,0.1,0,0.1,0,0.2
									c0,0.1,0,0.1,0,0.2c0,0.1,0,0.1,0,0.2c0,0.1,0,0.1,0,0.2c0,0.1,0,0.1,0,0.2c0,0.1,0,0.1,0,0.2v0.2c0,0.1,0,0.1,0,0.2
									l0.1,0.4v0.2c0,0.1,0,0.1,0,0.2c0,0.1,0,0.1,0,0.2c0,0.1,0,0.1,0,0.2s0,0.1,0,0.2s0,0.1,0.1,0.2c0,0.1,0,0.1,0,0.2
									s0,0.1,0,0.2c0,0.1,0,0.1,0,0.2c0,0.1,0,0.1,0,0.2c0,0.1,0,0.1,0,0.2c0,0.1,0,0.1,0,0.2l0.1,0.2c0,0.1,0,0.1,0.1,0.2
									c0,0.1,0.1,0.2,0.1,0.3l0.1,0.2c0,0.1,0,0.1,0.1,0.2c0,0.1,0,0.1,0.1,0.2c0,0.1,0,0.1,0.1,0.2l0.1,0.2c0,0.1,0,0.1,0.1,0.2
									l0.1,0.2v0.1l0.1,0.2l0.1,0.2c0,0.1,0.1,0.2,0.1,0.2l0.1,0.1c0,0,0,0,0,0l0.1,0.2c0,0,0,0.1,0.1,0.1l0.2,0.4
									c0.1,0.1,0.1,0.2,0.2,0.4c0,0,0,0.1,0.1,0.1l0.1,0.2l0.1,0.1l0.1,0.2l0.1,0.1c0,0.1,0.1,0.1,0.1,0.2l0.1,0.1l0.7,0.2
									l0.1,0.1l0.2,0.2l0.1,0.1c0.1,0.1,0.2,0.2,0.3,0.3l0,0l0.2,0.3l0.1,0.1l0.2,0.2l0.1,0.1l0.1,0.1l0,0l0.1,0.1l0.1,0.1
									l0.2,0.2l0,0l0.1,0.1c0.1,0.1,0.3,0.3,0.5,0.4l0,0C402.3,192.4,405.8,190.5,407.9,187.4"/>
							</g>
						</g>
						<g>
							<defs>
								<rect id="SVGID_179_" x="390.3" y="159.5" width="40" height="40"/>
							</defs>
							<clipPath id="SVGID_35_">
								<use xlink:href="#SVGID_179_"  style="overflow:visible;"/>
							</clipPath>
							<g style="clip-path:url(#SVGID_35_);">
								<path class="st25" d="M415.9,185.5c-0.2,0.2-0.5,0.4-0.8,0.6l-0.1,0.1l0,0c-0.7,0.5-1.5,0.9-2.3,1.1l0,0h-0.2h-0.1l-0.2,0.1
									h-0.2l0,0c-0.9,0.2-1.8,0.3-2.8,0.2h-0.1H409h-0.1h-0.1c-0.3-0.1-0.6-0.1-1-0.2c-2,3.1-5.5,5-9.2,5.1
									c0.9,0.8,1.8,1.5,2.8,2.1l0,0l0.3,0.2h0.1l0,0h0.1h0.1l0.2,0.1c0.1,0,0.1,0.1,0.2,0.1l0.2,0.1l0.2,0.1l0.2,0.1l0.2,0.1
									l0.3,0.2l0.2,0.1l0.2,0.1l0.2,0.1l0.3,0.1l0.2,0.1l0.2,0.1l0.2,0.1l0.2,0.1l0.2,0.1l0.2,0.1h0.2h0.2l0.2,0.1h0.2h0.2h0.2
									l0.2,0.1h0.2l0.4,0.1h0.2h0.2h0.2h0.2h0.2h0.2h0.2h0.3h0.2h2.6h0.2h0.2h0.2h0.2h0.1h0.3h0.1l0.4-0.1l0,0l0.4-0.1h0.1
									c0.1,0,0.2,0,0.3-0.1l0.1,0.3h0.2l0,0h0.1h0.1l0.2-0.1l0,0h0.1l0.6-0.2l0,0C417.5,192.9,417.6,188.9,415.9,185.5"/>
							</g>
						</g>
						<g>
							<defs>
								<rect id="SVGID_181_" x="390.3" y="159.5" width="40" height="40"/>
							</defs>
							<clipPath id="SVGID_36_">
								<use xlink:href="#SVGID_181_"  style="overflow:visible;"/>
							</clipPath>
							<g style="clip-path:url(#SVGID_36_);">
								<path class="st27" d="M418.3,177.5c0.1,0.3,0.1,0.7,0.2,1c0,0.1,0,0.1,0,0.2l0,0c0.1,0.9,0,1.7-0.2,2.6l0,0
									c0,0.1,0,0.1,0,0.2c0,0,0,0.1,0,0.1c0,0,0,0.1,0,0.1c0,0.1,0,0.1,0,0.2l0,0c-0.3,0.9-0.7,1.7-1.2,2.5l0,0l-0.2,0.2l-0.1,0.1
									l-0.1,0.1c-0.2,0.3-0.4,0.5-0.7,0.7c1.7,3.3,1.6,7.3-0.2,10.6c1.1-0.4,2.2-0.8,3.2-1.4l0,0l0.3-0.2h0.1l0,0c0,0,0.1,0,0.1,0
									l0.1-0.1l0.2-0.1l0.2-0.1l0.2-0.1l0.1-0.1l0.2-0.1l0.1-0.1l0.2-0.1l0.1-0.1l0.2-0.1l0.1-0.1l0.3-0.2l0.1-0.1l0.2-0.1
									c0,0,0.1-0.1,0.1-0.1l0.1-0.1l0.1-0.1c0,0,0.1-0.1,0.1-0.1l0.1-0.1l0.1-0.1l0.1-0.2l0.1-0.1l0.1-0.1l0.1-0.1l0.1-0.1
									l0.2-0.2l0.2-0.3c0,0,0.1-0.1,0.1-0.1l0.1-0.2c0,0,0.1-0.1,0.1-0.1c0-0.1,0.1-0.1,0.1-0.2c0,0,0.1-0.1,0.1-0.1l0.1-0.2
									l0.1-0.1c0,0,0-0.1,0.1-0.1l0.1-0.1l0.1-0.2c0-0.1,0.1-0.1,0.1-0.2l0.1-0.1v-0.1l0.1-0.2v-0.2c0.1-0.1,0.1-0.2,0.2-0.4
									l0.2-0.4c0,0,0-0.1,0.1-0.1l0.1-0.2c0-0.1,0-0.1,0.1-0.1c0-0.1,0.1-0.2,0.1-0.2c0-0.1,0-0.1,0.1-0.2c0-0.1,0.1-0.1,0.1-0.2
									l0.1-0.1l0.1-0.2c0,0,0-0.1,0.1-0.1l0.1-0.3v-0.1c0-0.1,0.1-0.3,0.1-0.4l0,0c0-0.1,0.1-0.2,0.1-0.4c0-0.1,0-0.1,0-0.1
									s0-0.2,0.1-0.3c0-0.1,0-0.1,0-0.2l0.1-0.2c0,0,0,0,0-0.1v-0.1c0,0,0-0.1,0-0.1l0.1-0.2l0,0c0,0,0-0.1,0-0.1l0.1-0.6l0,0
									C425.3,179.9,421.9,177.8,418.3,177.5"/>
							</g>
						</g>
						<g>
							<defs>
								<rect id="SVGID_183_" x="390.3" y="159.5" width="40" height="40"/>
							</defs>
							<clipPath id="SVGID_37_">
								<use xlink:href="#SVGID_183_"  style="overflow:visible;"/>
							</clipPath>
							<g style="clip-path:url(#SVGID_37_);">
								<path class="st29" d="M412.6,171.5c0.3,0.1,0.6,0.2,0.9,0.3l0.2,0.1l0,0c0.8,0.4,1.5,0.9,2.1,1.4l0,0l0.1,0.1
									c0,0,0,0,0.1,0.1l0.1,0.1l0.1,0.1l0,0c0.6,0.7,1.1,1.5,1.5,2.3c0,0,0,0,0,0.1l0.1,0.2v0.1c0,0,0,0.1,0,0.1
									c0.1,0.3,0.2,0.6,0.3,1c3.7,0.2,7.2,2.2,9.1,5.5c0.2-1.1,0.4-2.3,0.4-3.5v-0.4l0,0v-0.2c0-0.1,0-0.2,0-0.2
									c0-0.1,0-0.1,0-0.2s0-0.1,0-0.2c0-0.1,0-0.1,0-0.2c0-0.1,0-0.1,0-0.2c0-0.1,0-0.1,0-0.2c0-0.1,0-0.1,0-0.2
									c0-0.1,0-0.1,0-0.2v-0.2c0-0.1,0-0.1,0-0.2l-0.1-0.4v-0.2c0-0.1,0-0.2,0-0.2c0-0.1,0-0.1,0-0.2s0-0.1,0-0.2
									c0-0.1,0-0.1,0-0.2c0-0.1,0-0.1-0.1-0.2v-0.2c0-0.1,0-0.1,0-0.2c0-0.1,0-0.1,0-0.2c0-0.1,0-0.1,0-0.2c0-0.1,0-0.1-0.1-0.2
									c0-0.1,0-0.1,0-0.2l-0.1-0.2c0-0.1,0-0.1-0.1-0.2l-0.1-0.3l-0.1-0.2c0-0.1,0-0.1-0.1-0.2c0-0.1,0-0.1-0.1-0.2
									c0-0.1,0-0.1-0.1-0.2l-0.1-0.2c0-0.1,0-0.1-0.1-0.2l-0.4-0.1v-0.1l-0.1-0.2l-0.1-0.2c0-0.1-0.1-0.2-0.1-0.2l-0.1-0.1v-0.1
									l-0.1-0.2c0,0,0-0.1-0.1-0.1l-0.2-0.4c-0.1-0.1-0.1-0.2-0.2-0.4c0,0,0-0.1-0.1-0.1L425,170l-0.1-0.1l-0.1-0.2l-0.1-0.1
									l-0.1-0.2l-0.1-0.1l-0.2-0.2l-0.1-0.1l-0.2-0.2l-0.1-0.1c-0.1-0.1-0.2-0.2-0.3-0.3l0,0l-0.2-0.3l-0.1-0.2l-0.2-0.2l-0.1-0.1
									c0-0.1-0.1-0.1-0.1-0.1l0,0l-0.1-0.1l-0.1-0.1l-0.2-0.2l0,0l-0.1-0.1c-0.1-0.1-0.3-0.3-0.5-0.4l0,0
									C418.2,166.5,414.7,168.4,412.6,171.5"/>
							</g>
						</g>
						<g>
							<defs>
								<rect id="SVGID_185_" x="390.3" y="159.5" width="40" height="40"/>
							</defs>
							<clipPath id="SVGID_39_">
								<use xlink:href="#SVGID_185_"  style="overflow:visible;"/>
							</clipPath>
							<g class="st58">
								<path class="st31" d="M404.5,173.5c0.2-0.2,0.5-0.4,0.8-0.6l0.1-0.1l0,0c0.7-0.5,1.5-0.9,2.3-1.1l0,0h0.2h0.1h0.1h0.2l0,0
									c0.9-0.2,1.8-0.3,2.8-0.2h0h0.2h0.1h0.1c0.3,0.1,0.6,0.1,1,0.2c2-3.2,5.5-5.2,9.3-5.3c-0.9-0.8-1.8-1.5-2.8-2.1l0,0
									l-0.3-0.1h-0.1l0,0h-0.1h-0.1l-0.2-0.1l-0.2-0.1l-0.2-0.1l-0.2-0.1l-0.2-0.1l-0.2-0.1l-0.2-0.2l-0.2-0.1l-0.2-0.1l-0.2-0.1
									l-0.4-0.1l-0.2-0.1L416,163l-0.2-0.1l-0.2-0.1l-0.2-0.1l-0.2-0.1l-0.2-0.1h-0.2l-0.2-0.1h-0.2l-0.2-0.1h-0.2h-0.2l-0.2-0.1
									l-0.4-0.1h-0.2h-0.2c-0.1,0-0.1,0-0.2,0h-0.2h-0.2h-0.2h-0.7h-0.3h-2H409h-0.2h-0.2h-0.2h-0.2H408h-0.3h-0.1l-0.4,0.1l0,0
									l-0.4,0.1h-0.1l-0.4,0h-0.2h-0.2l0,0h-0.1h-0.1l-0.2,0.1l0,0h-0.1l-0.6,0.2l0,0C402.9,166,402.8,170.1,404.5,173.5"/>
							</g>
						</g>
					</g>
				</g>
			</g>
		</g>
	</g>
	<g id="Artifacts_3_">
		<g>
			<path d="M422.5,424.6v-2h-1h-1v-1v-1h-1h-20h-1v1v1h-1h-1v2h-2v16h30v-16H422.5z M399.5,421.6h20v1h-20V421.6z M422.5,438.6h-26
				v-12h26V438.6z"/>
			<polygon points="412.5,433.6 413.5,433.6 413.5,432.6 413.5,431.6 412.5,431.6 412.5,432.6 406.5,432.6 406.5,431.6 405.5,431.6 
				405.5,432.6 405.5,433.6 406.5,433.6 			"/>
		</g>
	</g>
	<g id="COS_6_">
		<circle class="st6" cx="409.5" cy="573.1" r="32"/>
		<g id="b67f92d5-a154-4c61-bfb5-d89970bdc569_5_">
			<g id="ab43b624-19ad-45dd-84cf-2ae36b1c0631_5_">
				<g>
					<defs>
						<filter id="Adobe_OpacityMaskFilter_1_" filterUnits="userSpaceOnUse" x="393.5" y="557.1" width="32" height="32">
							<feColorMatrix  type="matrix" values="1 0 0 0 0  0 1 0 0 0  0 0 1 0 0  0 0 0 1 0"/>
						</filter>
					</defs>
					<mask maskUnits="userSpaceOnUse" x="393.5" y="557.1" width="32" height="32" id="ad64d206-7b2b-4368-b62d-adee73950f0d_6_">
						<g class="st32">
							<g>
								<circle id="b75d8b6e-5ce7-43c4-9cc9-0c17d90f49a9_6_" class="st14" cx="400.5" cy="582.1" r="1"/>
								<path id="a0cbe26f-a3e8-4305-98bd-b87538ecdf9c_6_" class="st14" d="M421.5,577.1h-2v2h2v6h-24v-6h10v-2h-10
									c-1.1,0-2,0.9-2,2v6c0,1.1,0.9,2,2,2h24c1.1,0,2-0.9,2-2v-6C423.5,578,422.6,577.1,421.5,577.1z"/>
							</g>
							
								<linearGradient id="SVGID_41_" gradientUnits="userSpaceOnUse" x1="-531.9898" y1="-4253.4253" x2="-520.9898" y2="-4253.4253" gradientTransform="matrix(-1 0 0 1 -123.5 4831.5)">
								<stop  offset="0.1" style="stop-color:#000000"/>
								<stop  offset="0.888" style="stop-color:#000000;stop-opacity:0"/>
							</linearGradient>
							<rect x="397.5" y="576.1" style="fill:url(#SVGID_41_);" width="11" height="4"/>
						</g>
					</mask>
					<g class="st188">
						
							<linearGradient id="SVGID_43_" gradientUnits="userSpaceOnUse" x1="393.4898" y1="-285.0745" x2="425.4898" y2="-253.0745" gradientTransform="matrix(1 0 0 -1 0 304)">
							<stop  offset="0.1" style="stop-color:#9B76F6"/>
							<stop  offset="0.9" style="stop-color:#2467F4"/>
						</linearGradient>
						<rect x="393.5" y="557.1" style="fill:url(#SVGID_43_);" width="32" height="32"/>
					</g>
					<path id="e00f77ef-664d-4ed3-8c66-41177c512565_5_" class="st18" d="M411.5,567.1h-8v-8h8V567.1z M405.5,565.1h4v-4h-4V565.1z"
						/>
					<path class="st18" d="M415.5,571.1h-6v8h8v-6h6v-8h-8V571.1z M415.5,577.1h-4v-4h4V577.1z M421.5,567.1v4h-4v-4H421.5z"/>
				</g>
			</g>
		</g>
	</g>
	<g>
		<rect x="275.1" y="29.7" width="8" height="2"/>
		<rect x="275.1" y="25.7" width="12" height="2"/>
		<rect x="275.1" y="21.7" width="12" height="2"/>
		<path d="M271.8,47.7l5.6-10l7.4,6.5c0.5,0.4,1.1,0.6,1.7,0.5s1.1-0.5,1.4-1l7-10.4l-1.7-1.1l-7,10.4l-0.1,0.1l-7.4-6.5
			c-0.5-0.4-1.1-0.6-1.7-0.5s-1.1,0.5-1.4,1l-4.6,8.1V21.7h-2v26c0,1.1,0.9,2,2,2h26v-2H271.8z"/>
		<rect id="_x3C_Transparent_Rectangle_x3E__11_" x="267.1" y="19.7" class="st10" width="32" height="32"/>
	</g>
</g>
<g id="Text">
	<text id="headerSVG.prPipeline" transform="matrix(0.9993 0 0 1 124.9622 83.6484)" class="st269 st270">PR Pipeline</text>
	<text id="headerSVG.ciPipeline"	transform="matrix(0.9993 0 0 1 256.0259 229.3715)" class="st271 st270">CI Pipeline</text>
	<text id="headerSVG.cdPipeline" transform="matrix(0.9993 0 0 1 509.0694 229.3715)" class="st271 st270">CD Pipeline</text>
	<text id="headerSVG.keyProtect" transform="matrix(0.9993 0 0 1 380.1629 363.5327)" class="st272 st269 st270">Key Protect</text>
	<text id="headerSVG.artifactory" transform="matrix(0.9993 0 0 1 387.8518 482.5327)" class="st269 st270">Artifacts</text>
	<text id="headerSVG.virtual" transform="matrix(0.9993 0 0 1 649.053 229.3718)" class="st271 st270">Virtual</text>
	<text id="headerSVG.private" transform="matrix(0.9993 0 0 1 649.053 244.3718)" class="st271 st270">Private</text>
	<text id="headerSVG.cloud" transform="matrix(0.9993 0 0 1 649.053 259.3718)" class="st271 st270">Cloud</text>
	<text id="headerSVG.coderisk" transform="matrix(0.9993 0 0 1 252.5557 83.6484)" class="st272 st269 st270">Code Risk</text>
	<text id="headerSVG.analyzer" transform="matrix(0.9993 0 0 1 262.3728 97.9945)" class="st272 st269 st270">Analyzer</text>
	<text id="headerSVG.devops" transform="matrix(0.9993 0 0 1 389.6204 83.6484)" class="st272 st269 st270">DevOps</text>
	<text id="headerSVG.insights" transform="matrix(0.9993 0 0 1 388.4993 97.9943)" class="st272 st269 st270">Insights</text>
	<text id="headerSVG.cloud2" transform="matrix(0.9993 0 0 1 394.8972 621.5474)" class="st269 st270">Cloud</text>
	<text id="headerSVG.object" transform="matrix(0.9993 0 0 1 393.001 635.7728)" class="st269 st270">Object</text>
	<text id="headerSVG.storage" transform="matrix(0.9993 0 0 1 389.9673 649.6987)" class="st269 st270">Storage</text>
	<text id="headerSVG.issue" transform="matrix(0.9993 0 0 1 22.9188 229.3711)" class="st272 st271 st270">Issue</text>
	<text id="headerSVG.tracker" transform="matrix(0.9993 0 0 1 17.1971 244.346)" class="st272 st271 st270">Tracker</text>
	<text id="headerSVG.app" transform="matrix(0.9993 0 0 1 130.6712 229.3714)" class="st272 st271 st270">Application</text>
	<text id="headerSVG.repo" transform="matrix(0.9993 0 0 1 140.8245 244.3463)" class="st272 st271 st270">Repo</text>
	<text id="headerSVG.inventory" transform="matrix(0.9993 0 0 1 384.3755 229.3717)" class="st272 st271 st270">Inventory</text>
</g>
</svg>
